G04 #@! TF.GenerationSoftware,KiCad,Pcbnew,(5.0.1-3-g963ef8bb5)*
G04 #@! TF.CreationDate,2019-01-13T13:31:38+08:00*
G04 #@! TF.ProjectId,PassiveMult,506173736976654D756C742E6B696361,rev?*
G04 #@! TF.SameCoordinates,PX8d9f26cPY642443c*
G04 #@! TF.FileFunction,Soldermask,Top*
G04 #@! TF.FilePolarity,Negative*
%FSLAX46Y46*%
G04 Gerber Fmt 4.6, Leading zero omitted, Abs format (unit mm)*
G04 Created by KiCad (PCBNEW (5.0.1-3-g963ef8bb5)) date 2019 January 13, Sunday 13:31:38*
%MOMM*%
%LPD*%
G01*
G04 APERTURE LIST*
%ADD10C,0.100000*%
G04 APERTURE END LIST*
D10*
G36*
X3546820Y-46667313D02*
X3546823Y-46667314D01*
X3546824Y-46667314D01*
X3707238Y-46715975D01*
X3707240Y-46715976D01*
X3707243Y-46715977D01*
X3855078Y-46794995D01*
X3984659Y-46901341D01*
X4091005Y-47030922D01*
X4170023Y-47178756D01*
X4170023Y-47178757D01*
X4170025Y-47178761D01*
X4206492Y-47298977D01*
X4218687Y-47339179D01*
X4231000Y-47464196D01*
X4231000Y-48547803D01*
X4218687Y-48672821D01*
X4218686Y-48672824D01*
X4218686Y-48672825D01*
X4200360Y-48733239D01*
X4170023Y-48833244D01*
X4091005Y-48981078D01*
X3984659Y-49110659D01*
X3855078Y-49217005D01*
X3707244Y-49296023D01*
X3707241Y-49296024D01*
X3707239Y-49296025D01*
X3546825Y-49344686D01*
X3546824Y-49344686D01*
X3546821Y-49344687D01*
X3380000Y-49361117D01*
X3213180Y-49344687D01*
X3213177Y-49344686D01*
X3213176Y-49344686D01*
X3052762Y-49296025D01*
X3052760Y-49296024D01*
X3052757Y-49296023D01*
X2904923Y-49217005D01*
X2775342Y-49110659D01*
X2668996Y-48981078D01*
X2589978Y-48833244D01*
X2559642Y-48733239D01*
X2541315Y-48672825D01*
X2541315Y-48672824D01*
X2541314Y-48672821D01*
X2529001Y-48547804D01*
X2529000Y-47464197D01*
X2541313Y-47339180D01*
X2541314Y-47339176D01*
X2589975Y-47178762D01*
X2589976Y-47178760D01*
X2589977Y-47178757D01*
X2668995Y-47030922D01*
X2775341Y-46901341D01*
X2904922Y-46794995D01*
X3052756Y-46715977D01*
X3052759Y-46715976D01*
X3052761Y-46715975D01*
X3213175Y-46667314D01*
X3213176Y-46667314D01*
X3213179Y-46667313D01*
X3380000Y-46650883D01*
X3546820Y-46667313D01*
X3546820Y-46667313D01*
G37*
G36*
X-4762976Y-46666590D02*
X-4611989Y-46712392D01*
X-4472839Y-46786768D01*
X-4437250Y-46815975D01*
X-4350867Y-46886867D01*
X-4350866Y-46886869D01*
X-4350864Y-46886870D01*
X-4250770Y-47008835D01*
X-4176392Y-47147988D01*
X-4130590Y-47298975D01*
X-4119000Y-47416654D01*
X-4119000Y-48595346D01*
X-4130590Y-48713025D01*
X-4176392Y-48864012D01*
X-4250770Y-49003165D01*
X-4350867Y-49125133D01*
X-4472835Y-49225230D01*
X-4611988Y-49299608D01*
X-4762975Y-49345410D01*
X-4920000Y-49360875D01*
X-5077024Y-49345410D01*
X-5228011Y-49299608D01*
X-5367164Y-49225230D01*
X-5489132Y-49125133D01*
X-5589229Y-49003165D01*
X-5663607Y-48864012D01*
X-5709409Y-48713025D01*
X-5720999Y-48595346D01*
X-5721000Y-47416655D01*
X-5709410Y-47298976D01*
X-5663608Y-47147989D01*
X-5589232Y-47008839D01*
X-5489135Y-46886870D01*
X-5489133Y-46886867D01*
X-5489131Y-46886866D01*
X-5489130Y-46886864D01*
X-5367165Y-46786770D01*
X-5228012Y-46712392D01*
X-5077025Y-46666590D01*
X-4920000Y-46651125D01*
X-4762976Y-46666590D01*
X-4762976Y-46666590D01*
G37*
G36*
X6646820Y-46767313D02*
X6646823Y-46767314D01*
X6646824Y-46767314D01*
X6807238Y-46815975D01*
X6807240Y-46815976D01*
X6807243Y-46815977D01*
X6955078Y-46894995D01*
X7084659Y-47001341D01*
X7191005Y-47130922D01*
X7270023Y-47278756D01*
X7270023Y-47278757D01*
X7270025Y-47278761D01*
X7311855Y-47416656D01*
X7318687Y-47439179D01*
X7331000Y-47564196D01*
X7331000Y-48447803D01*
X7318687Y-48572820D01*
X7318686Y-48572822D01*
X7318686Y-48572825D01*
X7270025Y-48733239D01*
X7270023Y-48733244D01*
X7191005Y-48881078D01*
X7084659Y-49010659D01*
X6955078Y-49117005D01*
X6807244Y-49196023D01*
X6807241Y-49196024D01*
X6807239Y-49196025D01*
X6646825Y-49244686D01*
X6646824Y-49244686D01*
X6646821Y-49244687D01*
X6480000Y-49261117D01*
X6313180Y-49244687D01*
X6313177Y-49244686D01*
X6313176Y-49244686D01*
X6152762Y-49196025D01*
X6152760Y-49196024D01*
X6152757Y-49196023D01*
X6004923Y-49117005D01*
X5875342Y-49010659D01*
X5768996Y-48881078D01*
X5689978Y-48733244D01*
X5683845Y-48713025D01*
X5641315Y-48572825D01*
X5641315Y-48572824D01*
X5641314Y-48572821D01*
X5629000Y-48447803D01*
X5629000Y-47564197D01*
X5641313Y-47439180D01*
X5641314Y-47439176D01*
X5689975Y-47278762D01*
X5689976Y-47278760D01*
X5689977Y-47278757D01*
X5768995Y-47130922D01*
X5875341Y-47001341D01*
X6004922Y-46894995D01*
X6152756Y-46815977D01*
X6152759Y-46815976D01*
X6152761Y-46815975D01*
X6313175Y-46767314D01*
X6313176Y-46767314D01*
X6313179Y-46767313D01*
X6480000Y-46750883D01*
X6646820Y-46767313D01*
X6646820Y-46767313D01*
G37*
G36*
X3546820Y-34653113D02*
X3546823Y-34653114D01*
X3546824Y-34653114D01*
X3707238Y-34701775D01*
X3707240Y-34701776D01*
X3707243Y-34701777D01*
X3855078Y-34780795D01*
X3984659Y-34887141D01*
X4091005Y-35016722D01*
X4170023Y-35164556D01*
X4170023Y-35164557D01*
X4170025Y-35164561D01*
X4206492Y-35284777D01*
X4218687Y-35324979D01*
X4231000Y-35449996D01*
X4231000Y-36533603D01*
X4218687Y-36658621D01*
X4218686Y-36658624D01*
X4218686Y-36658625D01*
X4200360Y-36719039D01*
X4170023Y-36819044D01*
X4091005Y-36966878D01*
X3984659Y-37096459D01*
X3855078Y-37202805D01*
X3707244Y-37281823D01*
X3707241Y-37281824D01*
X3707239Y-37281825D01*
X3546825Y-37330486D01*
X3546824Y-37330486D01*
X3546821Y-37330487D01*
X3380000Y-37346917D01*
X3213180Y-37330487D01*
X3213177Y-37330486D01*
X3213176Y-37330486D01*
X3052762Y-37281825D01*
X3052760Y-37281824D01*
X3052757Y-37281823D01*
X2904923Y-37202805D01*
X2775342Y-37096459D01*
X2668996Y-36966878D01*
X2589978Y-36819044D01*
X2559642Y-36719039D01*
X2541315Y-36658625D01*
X2541315Y-36658624D01*
X2541314Y-36658621D01*
X2529001Y-36533604D01*
X2529000Y-35449997D01*
X2541313Y-35324980D01*
X2541314Y-35324976D01*
X2589975Y-35164562D01*
X2589976Y-35164560D01*
X2589977Y-35164557D01*
X2668995Y-35016722D01*
X2775341Y-34887141D01*
X2904922Y-34780795D01*
X3052756Y-34701777D01*
X3052759Y-34701776D01*
X3052761Y-34701775D01*
X3213175Y-34653114D01*
X3213176Y-34653114D01*
X3213179Y-34653113D01*
X3380000Y-34636683D01*
X3546820Y-34653113D01*
X3546820Y-34653113D01*
G37*
G36*
X-4762976Y-34652390D02*
X-4611989Y-34698192D01*
X-4472839Y-34772568D01*
X-4437250Y-34801775D01*
X-4350867Y-34872667D01*
X-4350866Y-34872669D01*
X-4350864Y-34872670D01*
X-4250770Y-34994635D01*
X-4176392Y-35133788D01*
X-4130590Y-35284775D01*
X-4119000Y-35402454D01*
X-4119000Y-36581146D01*
X-4130590Y-36698825D01*
X-4176392Y-36849812D01*
X-4250770Y-36988965D01*
X-4350867Y-37110933D01*
X-4472835Y-37211030D01*
X-4611988Y-37285408D01*
X-4762975Y-37331210D01*
X-4920000Y-37346675D01*
X-5077024Y-37331210D01*
X-5228011Y-37285408D01*
X-5367164Y-37211030D01*
X-5489132Y-37110933D01*
X-5589229Y-36988965D01*
X-5663607Y-36849812D01*
X-5709409Y-36698825D01*
X-5720999Y-36581146D01*
X-5721000Y-35402455D01*
X-5709410Y-35284776D01*
X-5663608Y-35133789D01*
X-5589232Y-34994639D01*
X-5489135Y-34872670D01*
X-5489133Y-34872667D01*
X-5489131Y-34872666D01*
X-5489130Y-34872664D01*
X-5367165Y-34772570D01*
X-5228012Y-34698192D01*
X-5077025Y-34652390D01*
X-4920000Y-34636925D01*
X-4762976Y-34652390D01*
X-4762976Y-34652390D01*
G37*
G36*
X6646820Y-34753113D02*
X6646823Y-34753114D01*
X6646824Y-34753114D01*
X6807238Y-34801775D01*
X6807240Y-34801776D01*
X6807243Y-34801777D01*
X6955078Y-34880795D01*
X7084659Y-34987141D01*
X7191005Y-35116722D01*
X7270023Y-35264556D01*
X7270023Y-35264557D01*
X7270025Y-35264561D01*
X7311855Y-35402456D01*
X7318687Y-35424979D01*
X7331000Y-35549996D01*
X7331000Y-36433603D01*
X7318687Y-36558620D01*
X7318686Y-36558622D01*
X7318686Y-36558625D01*
X7270025Y-36719039D01*
X7270023Y-36719044D01*
X7191005Y-36866878D01*
X7084659Y-36996459D01*
X6955078Y-37102805D01*
X6807244Y-37181823D01*
X6807241Y-37181824D01*
X6807239Y-37181825D01*
X6646825Y-37230486D01*
X6646824Y-37230486D01*
X6646821Y-37230487D01*
X6480000Y-37246917D01*
X6313180Y-37230487D01*
X6313177Y-37230486D01*
X6313176Y-37230486D01*
X6152762Y-37181825D01*
X6152760Y-37181824D01*
X6152757Y-37181823D01*
X6004923Y-37102805D01*
X5875342Y-36996459D01*
X5768996Y-36866878D01*
X5689978Y-36719044D01*
X5683845Y-36698825D01*
X5641315Y-36558625D01*
X5641315Y-36558624D01*
X5641314Y-36558621D01*
X5629000Y-36433603D01*
X5629000Y-35549997D01*
X5641313Y-35424980D01*
X5641314Y-35424976D01*
X5689975Y-35264562D01*
X5689976Y-35264560D01*
X5689977Y-35264557D01*
X5768995Y-35116722D01*
X5875341Y-34987141D01*
X6004922Y-34880795D01*
X6152756Y-34801777D01*
X6152759Y-34801776D01*
X6152761Y-34801775D01*
X6313175Y-34753114D01*
X6313176Y-34753114D01*
X6313179Y-34753113D01*
X6480000Y-34736683D01*
X6646820Y-34753113D01*
X6646820Y-34753113D01*
G37*
G36*
X3546820Y-22664313D02*
X3546823Y-22664314D01*
X3546824Y-22664314D01*
X3707238Y-22712975D01*
X3707240Y-22712976D01*
X3707243Y-22712977D01*
X3855078Y-22791995D01*
X3984659Y-22898341D01*
X4091005Y-23027922D01*
X4170023Y-23175756D01*
X4170023Y-23175757D01*
X4170025Y-23175761D01*
X4206492Y-23295977D01*
X4218687Y-23336179D01*
X4231000Y-23461196D01*
X4231000Y-24544803D01*
X4218687Y-24669821D01*
X4218686Y-24669824D01*
X4218686Y-24669825D01*
X4200360Y-24730239D01*
X4170023Y-24830244D01*
X4091005Y-24978078D01*
X3984659Y-25107659D01*
X3855078Y-25214005D01*
X3707244Y-25293023D01*
X3707241Y-25293024D01*
X3707239Y-25293025D01*
X3546825Y-25341686D01*
X3546824Y-25341686D01*
X3546821Y-25341687D01*
X3380000Y-25358117D01*
X3213180Y-25341687D01*
X3213177Y-25341686D01*
X3213176Y-25341686D01*
X3052762Y-25293025D01*
X3052760Y-25293024D01*
X3052757Y-25293023D01*
X2904923Y-25214005D01*
X2775342Y-25107659D01*
X2668996Y-24978078D01*
X2589978Y-24830244D01*
X2559642Y-24730239D01*
X2541315Y-24669825D01*
X2541315Y-24669824D01*
X2541314Y-24669821D01*
X2529001Y-24544804D01*
X2529000Y-23461197D01*
X2541313Y-23336180D01*
X2541314Y-23336176D01*
X2589975Y-23175762D01*
X2589976Y-23175760D01*
X2589977Y-23175757D01*
X2668995Y-23027922D01*
X2775341Y-22898341D01*
X2904922Y-22791995D01*
X3052756Y-22712977D01*
X3052759Y-22712976D01*
X3052761Y-22712975D01*
X3213175Y-22664314D01*
X3213176Y-22664314D01*
X3213179Y-22664313D01*
X3380000Y-22647883D01*
X3546820Y-22664313D01*
X3546820Y-22664313D01*
G37*
G36*
X-4762976Y-22663590D02*
X-4611989Y-22709392D01*
X-4472839Y-22783768D01*
X-4437250Y-22812975D01*
X-4350867Y-22883867D01*
X-4350866Y-22883869D01*
X-4350864Y-22883870D01*
X-4250770Y-23005835D01*
X-4176392Y-23144988D01*
X-4130590Y-23295975D01*
X-4119000Y-23413654D01*
X-4119000Y-24592346D01*
X-4130590Y-24710025D01*
X-4176392Y-24861012D01*
X-4250770Y-25000165D01*
X-4350867Y-25122133D01*
X-4472835Y-25222230D01*
X-4611988Y-25296608D01*
X-4762975Y-25342410D01*
X-4920000Y-25357875D01*
X-5077024Y-25342410D01*
X-5228011Y-25296608D01*
X-5367164Y-25222230D01*
X-5489132Y-25122133D01*
X-5589229Y-25000165D01*
X-5663607Y-24861012D01*
X-5709409Y-24710025D01*
X-5720999Y-24592346D01*
X-5721000Y-23413655D01*
X-5709410Y-23295976D01*
X-5663608Y-23144989D01*
X-5589232Y-23005839D01*
X-5489135Y-22883870D01*
X-5489133Y-22883867D01*
X-5489131Y-22883866D01*
X-5489130Y-22883864D01*
X-5367165Y-22783770D01*
X-5228012Y-22709392D01*
X-5077025Y-22663590D01*
X-4920000Y-22648125D01*
X-4762976Y-22663590D01*
X-4762976Y-22663590D01*
G37*
G36*
X6646820Y-22764313D02*
X6646823Y-22764314D01*
X6646824Y-22764314D01*
X6807238Y-22812975D01*
X6807240Y-22812976D01*
X6807243Y-22812977D01*
X6955078Y-22891995D01*
X7084659Y-22998341D01*
X7191005Y-23127922D01*
X7270023Y-23275756D01*
X7270023Y-23275757D01*
X7270025Y-23275761D01*
X7311855Y-23413656D01*
X7318687Y-23436179D01*
X7331000Y-23561196D01*
X7331000Y-24444803D01*
X7318687Y-24569820D01*
X7318686Y-24569822D01*
X7318686Y-24569825D01*
X7270025Y-24730239D01*
X7270023Y-24730244D01*
X7191005Y-24878078D01*
X7084659Y-25007659D01*
X6955078Y-25114005D01*
X6807244Y-25193023D01*
X6807241Y-25193024D01*
X6807239Y-25193025D01*
X6646825Y-25241686D01*
X6646824Y-25241686D01*
X6646821Y-25241687D01*
X6480000Y-25258117D01*
X6313180Y-25241687D01*
X6313177Y-25241686D01*
X6313176Y-25241686D01*
X6152762Y-25193025D01*
X6152760Y-25193024D01*
X6152757Y-25193023D01*
X6004923Y-25114005D01*
X5875342Y-25007659D01*
X5768996Y-24878078D01*
X5689978Y-24730244D01*
X5683845Y-24710025D01*
X5641315Y-24569825D01*
X5641315Y-24569824D01*
X5641314Y-24569821D01*
X5629000Y-24444803D01*
X5629000Y-23561197D01*
X5641313Y-23436180D01*
X5641314Y-23436176D01*
X5689975Y-23275762D01*
X5689976Y-23275760D01*
X5689977Y-23275757D01*
X5768995Y-23127922D01*
X5875341Y-22998341D01*
X6004922Y-22891995D01*
X6152756Y-22812977D01*
X6152759Y-22812976D01*
X6152761Y-22812975D01*
X6313175Y-22764314D01*
X6313176Y-22764314D01*
X6313179Y-22764313D01*
X6480000Y-22747883D01*
X6646820Y-22764313D01*
X6646820Y-22764313D01*
G37*
G36*
X3521420Y-10650113D02*
X3521423Y-10650114D01*
X3521424Y-10650114D01*
X3681838Y-10698775D01*
X3681840Y-10698776D01*
X3681843Y-10698777D01*
X3829678Y-10777795D01*
X3959259Y-10884141D01*
X4065605Y-11013722D01*
X4144623Y-11161556D01*
X4144623Y-11161557D01*
X4144625Y-11161561D01*
X4181092Y-11281777D01*
X4193287Y-11321979D01*
X4205600Y-11446996D01*
X4205600Y-12530603D01*
X4193287Y-12655621D01*
X4193286Y-12655624D01*
X4193286Y-12655625D01*
X4174960Y-12716039D01*
X4144623Y-12816044D01*
X4065605Y-12963878D01*
X3959259Y-13093459D01*
X3829678Y-13199805D01*
X3681844Y-13278823D01*
X3681841Y-13278824D01*
X3681839Y-13278825D01*
X3521425Y-13327486D01*
X3521424Y-13327486D01*
X3521421Y-13327487D01*
X3354600Y-13343917D01*
X3187780Y-13327487D01*
X3187777Y-13327486D01*
X3187776Y-13327486D01*
X3027362Y-13278825D01*
X3027360Y-13278824D01*
X3027357Y-13278823D01*
X2879523Y-13199805D01*
X2749942Y-13093459D01*
X2643596Y-12963878D01*
X2564578Y-12816044D01*
X2534242Y-12716039D01*
X2515915Y-12655625D01*
X2515915Y-12655624D01*
X2515914Y-12655621D01*
X2503601Y-12530604D01*
X2503600Y-11446997D01*
X2515913Y-11321980D01*
X2515914Y-11321976D01*
X2564575Y-11161562D01*
X2564576Y-11161560D01*
X2564577Y-11161557D01*
X2643595Y-11013722D01*
X2749941Y-10884141D01*
X2879522Y-10777795D01*
X3027356Y-10698777D01*
X3027359Y-10698776D01*
X3027361Y-10698775D01*
X3187775Y-10650114D01*
X3187776Y-10650114D01*
X3187779Y-10650113D01*
X3354600Y-10633683D01*
X3521420Y-10650113D01*
X3521420Y-10650113D01*
G37*
G36*
X-4788376Y-10649390D02*
X-4637389Y-10695192D01*
X-4498239Y-10769568D01*
X-4462650Y-10798775D01*
X-4376267Y-10869667D01*
X-4376266Y-10869669D01*
X-4376264Y-10869670D01*
X-4276170Y-10991635D01*
X-4201792Y-11130788D01*
X-4155990Y-11281775D01*
X-4144400Y-11399454D01*
X-4144400Y-12578146D01*
X-4155990Y-12695825D01*
X-4201792Y-12846812D01*
X-4276170Y-12985965D01*
X-4376267Y-13107933D01*
X-4498235Y-13208030D01*
X-4637388Y-13282408D01*
X-4788375Y-13328210D01*
X-4945400Y-13343675D01*
X-5102424Y-13328210D01*
X-5253411Y-13282408D01*
X-5392564Y-13208030D01*
X-5514532Y-13107933D01*
X-5614629Y-12985965D01*
X-5689007Y-12846812D01*
X-5734809Y-12695825D01*
X-5746399Y-12578146D01*
X-5746400Y-11399455D01*
X-5734810Y-11281776D01*
X-5689008Y-11130789D01*
X-5614632Y-10991639D01*
X-5514535Y-10869670D01*
X-5514533Y-10869667D01*
X-5514531Y-10869666D01*
X-5514530Y-10869664D01*
X-5392565Y-10769570D01*
X-5253412Y-10695192D01*
X-5102425Y-10649390D01*
X-4945400Y-10633925D01*
X-4788376Y-10649390D01*
X-4788376Y-10649390D01*
G37*
G36*
X6621420Y-10750113D02*
X6621423Y-10750114D01*
X6621424Y-10750114D01*
X6781838Y-10798775D01*
X6781840Y-10798776D01*
X6781843Y-10798777D01*
X6929678Y-10877795D01*
X7059259Y-10984141D01*
X7165605Y-11113722D01*
X7244623Y-11261556D01*
X7244623Y-11261557D01*
X7244625Y-11261561D01*
X7286455Y-11399456D01*
X7293287Y-11421979D01*
X7305600Y-11546996D01*
X7305600Y-12430603D01*
X7293287Y-12555620D01*
X7293286Y-12555622D01*
X7293286Y-12555625D01*
X7244625Y-12716039D01*
X7244623Y-12716044D01*
X7165605Y-12863878D01*
X7059259Y-12993459D01*
X6929678Y-13099805D01*
X6781844Y-13178823D01*
X6781841Y-13178824D01*
X6781839Y-13178825D01*
X6621425Y-13227486D01*
X6621424Y-13227486D01*
X6621421Y-13227487D01*
X6454600Y-13243917D01*
X6287780Y-13227487D01*
X6287777Y-13227486D01*
X6287776Y-13227486D01*
X6127362Y-13178825D01*
X6127360Y-13178824D01*
X6127357Y-13178823D01*
X5979523Y-13099805D01*
X5849942Y-12993459D01*
X5743596Y-12863878D01*
X5664578Y-12716044D01*
X5658445Y-12695825D01*
X5615915Y-12555625D01*
X5615915Y-12555624D01*
X5615914Y-12555621D01*
X5603600Y-12430603D01*
X5603600Y-11546997D01*
X5615913Y-11421980D01*
X5615914Y-11421976D01*
X5664575Y-11261562D01*
X5664576Y-11261560D01*
X5664577Y-11261557D01*
X5743595Y-11113722D01*
X5849941Y-10984141D01*
X5979522Y-10877795D01*
X6127356Y-10798777D01*
X6127359Y-10798776D01*
X6127361Y-10798775D01*
X6287775Y-10750114D01*
X6287776Y-10750114D01*
X6287779Y-10750113D01*
X6454600Y-10733683D01*
X6621420Y-10750113D01*
X6621420Y-10750113D01*
G37*
G36*
X3546820Y1338687D02*
X3546823Y1338686D01*
X3546824Y1338686D01*
X3707238Y1290025D01*
X3707240Y1290024D01*
X3707243Y1290023D01*
X3855078Y1211005D01*
X3984659Y1104659D01*
X4091005Y975078D01*
X4170023Y827244D01*
X4170023Y827243D01*
X4170025Y827239D01*
X4206492Y707023D01*
X4218687Y666821D01*
X4231000Y541804D01*
X4231000Y-541803D01*
X4218687Y-666821D01*
X4218686Y-666824D01*
X4218686Y-666825D01*
X4200360Y-727239D01*
X4170023Y-827244D01*
X4091005Y-975078D01*
X3984659Y-1104659D01*
X3855078Y-1211005D01*
X3707244Y-1290023D01*
X3707241Y-1290024D01*
X3707239Y-1290025D01*
X3546825Y-1338686D01*
X3546824Y-1338686D01*
X3546821Y-1338687D01*
X3380000Y-1355117D01*
X3213180Y-1338687D01*
X3213177Y-1338686D01*
X3213176Y-1338686D01*
X3052762Y-1290025D01*
X3052760Y-1290024D01*
X3052757Y-1290023D01*
X2904923Y-1211005D01*
X2775342Y-1104659D01*
X2668996Y-975078D01*
X2589978Y-827244D01*
X2559642Y-727239D01*
X2541315Y-666825D01*
X2541315Y-666824D01*
X2541314Y-666821D01*
X2529001Y-541804D01*
X2529000Y541803D01*
X2541313Y666820D01*
X2541314Y666824D01*
X2589975Y827238D01*
X2589976Y827240D01*
X2589977Y827243D01*
X2668995Y975078D01*
X2775341Y1104659D01*
X2904922Y1211005D01*
X3052756Y1290023D01*
X3052759Y1290024D01*
X3052761Y1290025D01*
X3213175Y1338686D01*
X3213176Y1338686D01*
X3213179Y1338687D01*
X3380000Y1355117D01*
X3546820Y1338687D01*
X3546820Y1338687D01*
G37*
G36*
X-4762976Y1339410D02*
X-4611989Y1293608D01*
X-4472839Y1219232D01*
X-4437250Y1190025D01*
X-4350867Y1119133D01*
X-4350866Y1119131D01*
X-4350864Y1119130D01*
X-4250770Y997165D01*
X-4176392Y858012D01*
X-4130590Y707025D01*
X-4119000Y589346D01*
X-4119000Y-589346D01*
X-4130590Y-707025D01*
X-4176392Y-858012D01*
X-4250770Y-997165D01*
X-4350867Y-1119133D01*
X-4472835Y-1219230D01*
X-4611988Y-1293608D01*
X-4762975Y-1339410D01*
X-4920000Y-1354875D01*
X-5077024Y-1339410D01*
X-5228011Y-1293608D01*
X-5367164Y-1219230D01*
X-5489132Y-1119133D01*
X-5589229Y-997165D01*
X-5663607Y-858012D01*
X-5709409Y-707025D01*
X-5720999Y-589346D01*
X-5721000Y589345D01*
X-5709410Y707024D01*
X-5663608Y858011D01*
X-5589232Y997161D01*
X-5489135Y1119130D01*
X-5489133Y1119133D01*
X-5489131Y1119134D01*
X-5489130Y1119136D01*
X-5367165Y1219230D01*
X-5228012Y1293608D01*
X-5077025Y1339410D01*
X-4920000Y1354875D01*
X-4762976Y1339410D01*
X-4762976Y1339410D01*
G37*
G36*
X6646820Y1238687D02*
X6646823Y1238686D01*
X6646824Y1238686D01*
X6807238Y1190025D01*
X6807240Y1190024D01*
X6807243Y1190023D01*
X6955078Y1111005D01*
X7084659Y1004659D01*
X7191005Y875078D01*
X7270023Y727244D01*
X7270023Y727243D01*
X7270025Y727239D01*
X7311855Y589344D01*
X7318687Y566821D01*
X7331000Y441804D01*
X7331000Y-441803D01*
X7318687Y-566820D01*
X7318686Y-566822D01*
X7318686Y-566825D01*
X7270025Y-727239D01*
X7270023Y-727244D01*
X7191005Y-875078D01*
X7084659Y-1004659D01*
X6955078Y-1111005D01*
X6807244Y-1190023D01*
X6807241Y-1190024D01*
X6807239Y-1190025D01*
X6646825Y-1238686D01*
X6646824Y-1238686D01*
X6646821Y-1238687D01*
X6480000Y-1255117D01*
X6313180Y-1238687D01*
X6313177Y-1238686D01*
X6313176Y-1238686D01*
X6152762Y-1190025D01*
X6152760Y-1190024D01*
X6152757Y-1190023D01*
X6004923Y-1111005D01*
X5875342Y-1004659D01*
X5768996Y-875078D01*
X5689978Y-727244D01*
X5683845Y-707025D01*
X5641315Y-566825D01*
X5641315Y-566824D01*
X5641314Y-566821D01*
X5629000Y-441803D01*
X5629000Y441803D01*
X5641313Y566820D01*
X5641314Y566824D01*
X5689975Y727238D01*
X5689976Y727240D01*
X5689977Y727243D01*
X5768995Y875078D01*
X5875341Y1004659D01*
X6004922Y1111005D01*
X6152756Y1190023D01*
X6152759Y1190024D01*
X6152761Y1190025D01*
X6313175Y1238686D01*
X6313176Y1238686D01*
X6313179Y1238687D01*
X6480000Y1255117D01*
X6646820Y1238687D01*
X6646820Y1238687D01*
G37*
G36*
X3546820Y13352887D02*
X3546823Y13352886D01*
X3546824Y13352886D01*
X3707238Y13304225D01*
X3707240Y13304224D01*
X3707243Y13304223D01*
X3855078Y13225205D01*
X3984659Y13118859D01*
X4091005Y12989278D01*
X4170023Y12841444D01*
X4170023Y12841443D01*
X4170025Y12841439D01*
X4206492Y12721223D01*
X4218687Y12681021D01*
X4231000Y12556004D01*
X4231000Y11472397D01*
X4218687Y11347379D01*
X4218686Y11347376D01*
X4218686Y11347375D01*
X4200360Y11286961D01*
X4170023Y11186956D01*
X4091005Y11039122D01*
X3984659Y10909541D01*
X3855078Y10803195D01*
X3707244Y10724177D01*
X3707241Y10724176D01*
X3707239Y10724175D01*
X3546825Y10675514D01*
X3546824Y10675514D01*
X3546821Y10675513D01*
X3380000Y10659083D01*
X3213180Y10675513D01*
X3213177Y10675514D01*
X3213176Y10675514D01*
X3052762Y10724175D01*
X3052760Y10724176D01*
X3052757Y10724177D01*
X2904923Y10803195D01*
X2775342Y10909541D01*
X2668996Y11039122D01*
X2589978Y11186956D01*
X2559642Y11286961D01*
X2541315Y11347375D01*
X2541315Y11347376D01*
X2541314Y11347379D01*
X2529001Y11472396D01*
X2529000Y12556003D01*
X2541313Y12681020D01*
X2541314Y12681024D01*
X2589975Y12841438D01*
X2589976Y12841440D01*
X2589977Y12841443D01*
X2668995Y12989278D01*
X2775341Y13118859D01*
X2904922Y13225205D01*
X3052756Y13304223D01*
X3052759Y13304224D01*
X3052761Y13304225D01*
X3213175Y13352886D01*
X3213176Y13352886D01*
X3213179Y13352887D01*
X3380000Y13369317D01*
X3546820Y13352887D01*
X3546820Y13352887D01*
G37*
G36*
X-4762976Y13353610D02*
X-4611989Y13307808D01*
X-4472839Y13233432D01*
X-4437250Y13204225D01*
X-4350867Y13133333D01*
X-4350866Y13133331D01*
X-4350864Y13133330D01*
X-4250770Y13011365D01*
X-4176392Y12872212D01*
X-4130590Y12721225D01*
X-4119000Y12603546D01*
X-4119000Y11424854D01*
X-4130590Y11307175D01*
X-4176392Y11156188D01*
X-4250770Y11017035D01*
X-4350867Y10895067D01*
X-4472835Y10794970D01*
X-4611988Y10720592D01*
X-4762975Y10674790D01*
X-4920000Y10659325D01*
X-5077024Y10674790D01*
X-5228011Y10720592D01*
X-5367164Y10794970D01*
X-5489132Y10895067D01*
X-5589229Y11017035D01*
X-5663607Y11156188D01*
X-5709409Y11307175D01*
X-5720999Y11424854D01*
X-5721000Y12603545D01*
X-5709410Y12721224D01*
X-5663608Y12872211D01*
X-5589232Y13011361D01*
X-5489135Y13133330D01*
X-5489133Y13133333D01*
X-5489131Y13133334D01*
X-5489130Y13133336D01*
X-5367165Y13233430D01*
X-5228012Y13307808D01*
X-5077025Y13353610D01*
X-4920000Y13369075D01*
X-4762976Y13353610D01*
X-4762976Y13353610D01*
G37*
G36*
X6646820Y13252887D02*
X6646823Y13252886D01*
X6646824Y13252886D01*
X6807238Y13204225D01*
X6807240Y13204224D01*
X6807243Y13204223D01*
X6955078Y13125205D01*
X7084659Y13018859D01*
X7191005Y12889278D01*
X7270023Y12741444D01*
X7270023Y12741443D01*
X7270025Y12741439D01*
X7311855Y12603544D01*
X7318687Y12581021D01*
X7331000Y12456004D01*
X7331000Y11572397D01*
X7318687Y11447380D01*
X7318686Y11447378D01*
X7318686Y11447375D01*
X7270025Y11286961D01*
X7270023Y11286956D01*
X7191005Y11139122D01*
X7084659Y11009541D01*
X6955078Y10903195D01*
X6807244Y10824177D01*
X6807241Y10824176D01*
X6807239Y10824175D01*
X6646825Y10775514D01*
X6646824Y10775514D01*
X6646821Y10775513D01*
X6480000Y10759083D01*
X6313180Y10775513D01*
X6313177Y10775514D01*
X6313176Y10775514D01*
X6152762Y10824175D01*
X6152760Y10824176D01*
X6152757Y10824177D01*
X6004923Y10903195D01*
X5875342Y11009541D01*
X5768996Y11139122D01*
X5689978Y11286956D01*
X5683845Y11307175D01*
X5641315Y11447375D01*
X5641315Y11447376D01*
X5641314Y11447379D01*
X5629000Y11572397D01*
X5629000Y12456003D01*
X5641313Y12581020D01*
X5641314Y12581024D01*
X5689975Y12741438D01*
X5689976Y12741440D01*
X5689977Y12741443D01*
X5768995Y12889278D01*
X5875341Y13018859D01*
X6004922Y13125205D01*
X6152756Y13204223D01*
X6152759Y13204224D01*
X6152761Y13204225D01*
X6313175Y13252886D01*
X6313176Y13252886D01*
X6313179Y13252887D01*
X6480000Y13269317D01*
X6646820Y13252887D01*
X6646820Y13252887D01*
G37*
G36*
X3572220Y25316287D02*
X3572223Y25316286D01*
X3572224Y25316286D01*
X3732638Y25267625D01*
X3732640Y25267624D01*
X3732643Y25267623D01*
X3880478Y25188605D01*
X4010059Y25082259D01*
X4116405Y24952678D01*
X4195423Y24804844D01*
X4195423Y24804843D01*
X4195425Y24804839D01*
X4231892Y24684623D01*
X4244087Y24644421D01*
X4256400Y24519404D01*
X4256400Y23435797D01*
X4244087Y23310779D01*
X4244086Y23310776D01*
X4244086Y23310775D01*
X4225760Y23250361D01*
X4195423Y23150356D01*
X4116405Y23002522D01*
X4010059Y22872941D01*
X3880478Y22766595D01*
X3732644Y22687577D01*
X3732641Y22687576D01*
X3732639Y22687575D01*
X3572225Y22638914D01*
X3572224Y22638914D01*
X3572221Y22638913D01*
X3405400Y22622483D01*
X3238580Y22638913D01*
X3238577Y22638914D01*
X3238576Y22638914D01*
X3078162Y22687575D01*
X3078160Y22687576D01*
X3078157Y22687577D01*
X2930323Y22766595D01*
X2800742Y22872941D01*
X2694396Y23002522D01*
X2615378Y23150356D01*
X2585042Y23250361D01*
X2566715Y23310775D01*
X2566715Y23310776D01*
X2566714Y23310779D01*
X2554401Y23435796D01*
X2554400Y24519403D01*
X2566713Y24644420D01*
X2566714Y24644424D01*
X2615375Y24804838D01*
X2615376Y24804840D01*
X2615377Y24804843D01*
X2694395Y24952678D01*
X2800741Y25082259D01*
X2930322Y25188605D01*
X3078156Y25267623D01*
X3078159Y25267624D01*
X3078161Y25267625D01*
X3238575Y25316286D01*
X3238576Y25316286D01*
X3238579Y25316287D01*
X3405400Y25332717D01*
X3572220Y25316287D01*
X3572220Y25316287D01*
G37*
G36*
X-4737576Y25317010D02*
X-4586589Y25271208D01*
X-4447439Y25196832D01*
X-4411850Y25167625D01*
X-4325467Y25096733D01*
X-4325466Y25096731D01*
X-4325464Y25096730D01*
X-4225370Y24974765D01*
X-4150992Y24835612D01*
X-4105190Y24684625D01*
X-4093600Y24566946D01*
X-4093600Y23388254D01*
X-4105190Y23270575D01*
X-4150992Y23119588D01*
X-4225370Y22980435D01*
X-4325467Y22858467D01*
X-4447435Y22758370D01*
X-4586588Y22683992D01*
X-4737575Y22638190D01*
X-4894600Y22622725D01*
X-5051624Y22638190D01*
X-5202611Y22683992D01*
X-5341764Y22758370D01*
X-5463732Y22858467D01*
X-5563829Y22980435D01*
X-5638207Y23119588D01*
X-5684009Y23270575D01*
X-5695599Y23388254D01*
X-5695600Y24566945D01*
X-5684010Y24684624D01*
X-5638208Y24835611D01*
X-5563832Y24974761D01*
X-5463735Y25096730D01*
X-5463733Y25096733D01*
X-5463731Y25096734D01*
X-5463730Y25096736D01*
X-5341765Y25196830D01*
X-5202612Y25271208D01*
X-5051625Y25317010D01*
X-4894600Y25332475D01*
X-4737576Y25317010D01*
X-4737576Y25317010D01*
G37*
G36*
X6672220Y25216287D02*
X6672223Y25216286D01*
X6672224Y25216286D01*
X6832638Y25167625D01*
X6832640Y25167624D01*
X6832643Y25167623D01*
X6980478Y25088605D01*
X7110059Y24982259D01*
X7216405Y24852678D01*
X7295423Y24704844D01*
X7295423Y24704843D01*
X7295425Y24704839D01*
X7337255Y24566944D01*
X7344087Y24544421D01*
X7356400Y24419404D01*
X7356400Y23535797D01*
X7344087Y23410780D01*
X7344086Y23410778D01*
X7344086Y23410775D01*
X7295425Y23250361D01*
X7295423Y23250356D01*
X7216405Y23102522D01*
X7110059Y22972941D01*
X6980478Y22866595D01*
X6832644Y22787577D01*
X6832641Y22787576D01*
X6832639Y22787575D01*
X6672225Y22738914D01*
X6672224Y22738914D01*
X6672221Y22738913D01*
X6505400Y22722483D01*
X6338580Y22738913D01*
X6338577Y22738914D01*
X6338576Y22738914D01*
X6178162Y22787575D01*
X6178160Y22787576D01*
X6178157Y22787577D01*
X6030323Y22866595D01*
X5900742Y22972941D01*
X5794396Y23102522D01*
X5715378Y23250356D01*
X5709245Y23270575D01*
X5666715Y23410775D01*
X5666715Y23410776D01*
X5666714Y23410779D01*
X5654400Y23535797D01*
X5654400Y24419403D01*
X5666713Y24544420D01*
X5666714Y24544424D01*
X5715375Y24704838D01*
X5715376Y24704840D01*
X5715377Y24704843D01*
X5794395Y24852678D01*
X5900741Y24982259D01*
X6030322Y25088605D01*
X6178156Y25167623D01*
X6178159Y25167624D01*
X6178161Y25167625D01*
X6338575Y25216286D01*
X6338576Y25216286D01*
X6338579Y25216287D01*
X6505400Y25232717D01*
X6672220Y25216287D01*
X6672220Y25216287D01*
G37*
G36*
X3546820Y37330487D02*
X3546823Y37330486D01*
X3546824Y37330486D01*
X3707238Y37281825D01*
X3707240Y37281824D01*
X3707243Y37281823D01*
X3855078Y37202805D01*
X3984659Y37096459D01*
X4091005Y36966878D01*
X4170023Y36819044D01*
X4170023Y36819043D01*
X4170025Y36819039D01*
X4206492Y36698823D01*
X4218687Y36658621D01*
X4231000Y36533604D01*
X4231000Y35449997D01*
X4218687Y35324979D01*
X4218686Y35324976D01*
X4218686Y35324975D01*
X4200360Y35264561D01*
X4170023Y35164556D01*
X4091005Y35016722D01*
X3984659Y34887141D01*
X3855078Y34780795D01*
X3707244Y34701777D01*
X3707241Y34701776D01*
X3707239Y34701775D01*
X3546825Y34653114D01*
X3546824Y34653114D01*
X3546821Y34653113D01*
X3380000Y34636683D01*
X3213180Y34653113D01*
X3213177Y34653114D01*
X3213176Y34653114D01*
X3052762Y34701775D01*
X3052760Y34701776D01*
X3052757Y34701777D01*
X2904923Y34780795D01*
X2775342Y34887141D01*
X2668996Y35016722D01*
X2589978Y35164556D01*
X2559642Y35264561D01*
X2541315Y35324975D01*
X2541315Y35324976D01*
X2541314Y35324979D01*
X2529001Y35449996D01*
X2529000Y36533603D01*
X2541313Y36658620D01*
X2541314Y36658624D01*
X2589975Y36819038D01*
X2589976Y36819040D01*
X2589977Y36819043D01*
X2668995Y36966878D01*
X2775341Y37096459D01*
X2904922Y37202805D01*
X3052756Y37281823D01*
X3052759Y37281824D01*
X3052761Y37281825D01*
X3213175Y37330486D01*
X3213176Y37330486D01*
X3213179Y37330487D01*
X3380000Y37346917D01*
X3546820Y37330487D01*
X3546820Y37330487D01*
G37*
G36*
X-4762976Y37331210D02*
X-4611989Y37285408D01*
X-4472839Y37211032D01*
X-4437250Y37181825D01*
X-4350867Y37110933D01*
X-4350866Y37110931D01*
X-4350864Y37110930D01*
X-4250770Y36988965D01*
X-4176392Y36849812D01*
X-4130590Y36698825D01*
X-4119000Y36581146D01*
X-4119000Y35402454D01*
X-4130590Y35284775D01*
X-4176392Y35133788D01*
X-4250770Y34994635D01*
X-4350867Y34872667D01*
X-4472835Y34772570D01*
X-4611988Y34698192D01*
X-4762975Y34652390D01*
X-4920000Y34636925D01*
X-5077024Y34652390D01*
X-5228011Y34698192D01*
X-5367164Y34772570D01*
X-5489132Y34872667D01*
X-5589229Y34994635D01*
X-5663607Y35133788D01*
X-5709409Y35284775D01*
X-5720999Y35402454D01*
X-5721000Y36581145D01*
X-5709410Y36698824D01*
X-5663608Y36849811D01*
X-5589232Y36988961D01*
X-5489135Y37110930D01*
X-5489133Y37110933D01*
X-5489131Y37110934D01*
X-5489130Y37110936D01*
X-5367165Y37211030D01*
X-5228012Y37285408D01*
X-5077025Y37331210D01*
X-4920000Y37346675D01*
X-4762976Y37331210D01*
X-4762976Y37331210D01*
G37*
G36*
X6646820Y37230487D02*
X6646823Y37230486D01*
X6646824Y37230486D01*
X6807238Y37181825D01*
X6807240Y37181824D01*
X6807243Y37181823D01*
X6955078Y37102805D01*
X7084659Y36996459D01*
X7191005Y36866878D01*
X7270023Y36719044D01*
X7270023Y36719043D01*
X7270025Y36719039D01*
X7311855Y36581144D01*
X7318687Y36558621D01*
X7331000Y36433604D01*
X7331000Y35549997D01*
X7318687Y35424980D01*
X7318686Y35424978D01*
X7318686Y35424975D01*
X7270025Y35264561D01*
X7270023Y35264556D01*
X7191005Y35116722D01*
X7084659Y34987141D01*
X6955078Y34880795D01*
X6807244Y34801777D01*
X6807241Y34801776D01*
X6807239Y34801775D01*
X6646825Y34753114D01*
X6646824Y34753114D01*
X6646821Y34753113D01*
X6480000Y34736683D01*
X6313180Y34753113D01*
X6313177Y34753114D01*
X6313176Y34753114D01*
X6152762Y34801775D01*
X6152760Y34801776D01*
X6152757Y34801777D01*
X6004923Y34880795D01*
X5875342Y34987141D01*
X5768996Y35116722D01*
X5689978Y35264556D01*
X5683845Y35284775D01*
X5641315Y35424975D01*
X5641315Y35424976D01*
X5641314Y35424979D01*
X5629000Y35549997D01*
X5629000Y36433603D01*
X5641313Y36558620D01*
X5641314Y36558624D01*
X5689975Y36719038D01*
X5689976Y36719040D01*
X5689977Y36719043D01*
X5768995Y36866878D01*
X5875341Y36996459D01*
X6004922Y37102805D01*
X6152756Y37181823D01*
X6152759Y37181824D01*
X6152761Y37181825D01*
X6313175Y37230486D01*
X6313176Y37230486D01*
X6313179Y37230487D01*
X6480000Y37246917D01*
X6646820Y37230487D01*
X6646820Y37230487D01*
G37*
G36*
X3546820Y49344687D02*
X3546823Y49344686D01*
X3546824Y49344686D01*
X3707238Y49296025D01*
X3707240Y49296024D01*
X3707243Y49296023D01*
X3855078Y49217005D01*
X3984659Y49110659D01*
X4091005Y48981078D01*
X4170023Y48833244D01*
X4170023Y48833243D01*
X4170025Y48833239D01*
X4206492Y48713023D01*
X4218687Y48672821D01*
X4231000Y48547804D01*
X4231000Y47464197D01*
X4218687Y47339179D01*
X4218686Y47339176D01*
X4218686Y47339175D01*
X4200360Y47278761D01*
X4170023Y47178756D01*
X4091005Y47030922D01*
X3984659Y46901341D01*
X3855078Y46794995D01*
X3707244Y46715977D01*
X3707241Y46715976D01*
X3707239Y46715975D01*
X3546825Y46667314D01*
X3546824Y46667314D01*
X3546821Y46667313D01*
X3380000Y46650883D01*
X3213180Y46667313D01*
X3213177Y46667314D01*
X3213176Y46667314D01*
X3052762Y46715975D01*
X3052760Y46715976D01*
X3052757Y46715977D01*
X2904923Y46794995D01*
X2775342Y46901341D01*
X2668996Y47030922D01*
X2589978Y47178756D01*
X2559642Y47278761D01*
X2541315Y47339175D01*
X2541315Y47339176D01*
X2541314Y47339179D01*
X2529001Y47464196D01*
X2529000Y48547803D01*
X2541313Y48672820D01*
X2541314Y48672824D01*
X2589975Y48833238D01*
X2589976Y48833240D01*
X2589977Y48833243D01*
X2668995Y48981078D01*
X2775341Y49110659D01*
X2904922Y49217005D01*
X3052756Y49296023D01*
X3052759Y49296024D01*
X3052761Y49296025D01*
X3213175Y49344686D01*
X3213176Y49344686D01*
X3213179Y49344687D01*
X3380000Y49361117D01*
X3546820Y49344687D01*
X3546820Y49344687D01*
G37*
G36*
X-4762976Y49345410D02*
X-4611989Y49299608D01*
X-4472839Y49225232D01*
X-4437250Y49196025D01*
X-4350867Y49125133D01*
X-4350866Y49125131D01*
X-4350864Y49125130D01*
X-4250770Y49003165D01*
X-4176392Y48864012D01*
X-4130590Y48713025D01*
X-4119000Y48595346D01*
X-4119000Y47416654D01*
X-4130590Y47298975D01*
X-4176392Y47147988D01*
X-4250770Y47008835D01*
X-4350867Y46886867D01*
X-4472835Y46786770D01*
X-4611988Y46712392D01*
X-4762975Y46666590D01*
X-4920000Y46651125D01*
X-5077024Y46666590D01*
X-5228011Y46712392D01*
X-5367164Y46786770D01*
X-5489132Y46886867D01*
X-5589229Y47008835D01*
X-5663607Y47147988D01*
X-5709409Y47298975D01*
X-5720999Y47416654D01*
X-5721000Y48595345D01*
X-5709410Y48713024D01*
X-5663608Y48864011D01*
X-5589232Y49003161D01*
X-5489135Y49125130D01*
X-5489133Y49125133D01*
X-5489131Y49125134D01*
X-5489130Y49125136D01*
X-5367165Y49225230D01*
X-5228012Y49299608D01*
X-5077025Y49345410D01*
X-4920000Y49360875D01*
X-4762976Y49345410D01*
X-4762976Y49345410D01*
G37*
G36*
X6646820Y49244687D02*
X6646823Y49244686D01*
X6646824Y49244686D01*
X6807238Y49196025D01*
X6807240Y49196024D01*
X6807243Y49196023D01*
X6955078Y49117005D01*
X7084659Y49010659D01*
X7191005Y48881078D01*
X7270023Y48733244D01*
X7270023Y48733243D01*
X7270025Y48733239D01*
X7311855Y48595344D01*
X7318687Y48572821D01*
X7331000Y48447804D01*
X7331000Y47564197D01*
X7318687Y47439180D01*
X7318686Y47439178D01*
X7318686Y47439175D01*
X7270025Y47278761D01*
X7270023Y47278756D01*
X7191005Y47130922D01*
X7084659Y47001341D01*
X6955078Y46894995D01*
X6807244Y46815977D01*
X6807241Y46815976D01*
X6807239Y46815975D01*
X6646825Y46767314D01*
X6646824Y46767314D01*
X6646821Y46767313D01*
X6480000Y46750883D01*
X6313180Y46767313D01*
X6313177Y46767314D01*
X6313176Y46767314D01*
X6152762Y46815975D01*
X6152760Y46815976D01*
X6152757Y46815977D01*
X6004923Y46894995D01*
X5875342Y47001341D01*
X5768996Y47130922D01*
X5689978Y47278756D01*
X5683845Y47298975D01*
X5641315Y47439175D01*
X5641315Y47439176D01*
X5641314Y47439179D01*
X5629000Y47564197D01*
X5629000Y48447803D01*
X5641313Y48572820D01*
X5641314Y48572824D01*
X5689975Y48733238D01*
X5689976Y48733240D01*
X5689977Y48733243D01*
X5768995Y48881078D01*
X5875341Y49010659D01*
X6004922Y49117005D01*
X6152756Y49196023D01*
X6152759Y49196024D01*
X6152761Y49196025D01*
X6313175Y49244686D01*
X6313176Y49244686D01*
X6313179Y49244687D01*
X6480000Y49261117D01*
X6646820Y49244687D01*
X6646820Y49244687D01*
G37*
M02*
