G04 #@! TF.GenerationSoftware,KiCad,Pcbnew,(5.0.1-3-g963ef8bb5)*
G04 #@! TF.CreationDate,2019-01-13T13:31:38+08:00*
G04 #@! TF.ProjectId,PassiveMult,506173736976654D756C742E6B696361,rev?*
G04 #@! TF.SameCoordinates,PX8d9f26cPY642443c*
G04 #@! TF.FileFunction,Copper,L1,Top,Signal*
G04 #@! TF.FilePolarity,Positive*
%FSLAX46Y46*%
G04 Gerber Fmt 4.6, Leading zero omitted, Abs format (unit mm)*
G04 Created by KiCad (PCBNEW (5.0.1-3-g963ef8bb5)) date 2019 January 13, Sunday 13:31:38*
%MOMM*%
%LPD*%
G01*
G04 APERTURE LIST*
G04 #@! TA.AperFunction,ComponentPad*
%ADD10O,1.600000X2.600000*%
G04 #@! TD*
G04 #@! TA.AperFunction,ComponentPad*
%ADD11O,1.600000X2.400000*%
G04 #@! TD*
G04 #@! TA.AperFunction,ComponentPad*
%ADD12O,1.500000X2.600000*%
G04 #@! TD*
G04 #@! TA.AperFunction,Conductor*
%ADD13C,0.254000*%
G04 #@! TD*
G04 APERTURE END LIST*
D10*
G04 #@! TO.P,J9,TN*
G04 #@! TO.N,Net-(J9-PadTN)*
X3380000Y-48006000D03*
D11*
G04 #@! TO.P,J9,S*
G04 #@! TO.N,GND*
X6480000Y-48006000D03*
D12*
G04 #@! TO.P,J9,T*
G04 #@! TO.N,Net-(J7-PadT)*
X-4920000Y-48006000D03*
G04 #@! TD*
G04 #@! TO.P,J8,T*
G04 #@! TO.N,Net-(J7-PadT)*
X-4920000Y-35991800D03*
D11*
G04 #@! TO.P,J8,S*
G04 #@! TO.N,GND*
X6480000Y-35991800D03*
D10*
G04 #@! TO.P,J8,TN*
G04 #@! TO.N,Net-(J8-PadTN)*
X3380000Y-35991800D03*
G04 #@! TD*
G04 #@! TO.P,J7,TN*
G04 #@! TO.N,Net-(J4-PadT)*
X3380000Y-24003000D03*
D11*
G04 #@! TO.P,J7,S*
G04 #@! TO.N,GND*
X6480000Y-24003000D03*
D12*
G04 #@! TO.P,J7,T*
G04 #@! TO.N,Net-(J7-PadT)*
X-4920000Y-24003000D03*
G04 #@! TD*
G04 #@! TO.P,J6,T*
G04 #@! TO.N,Net-(J4-PadT)*
X-4945400Y-11988800D03*
D11*
G04 #@! TO.P,J6,S*
G04 #@! TO.N,GND*
X6454600Y-11988800D03*
D10*
G04 #@! TO.P,J6,TN*
G04 #@! TO.N,Net-(J6-PadTN)*
X3354600Y-11988800D03*
G04 #@! TD*
G04 #@! TO.P,J5,TN*
G04 #@! TO.N,Net-(J5-PadTN)*
X3380000Y0D03*
D11*
G04 #@! TO.P,J5,S*
G04 #@! TO.N,GND*
X6480000Y0D03*
D12*
G04 #@! TO.P,J5,T*
G04 #@! TO.N,Net-(J4-PadT)*
X-4920000Y0D03*
G04 #@! TD*
G04 #@! TO.P,J4,T*
G04 #@! TO.N,Net-(J4-PadT)*
X-4920000Y12014200D03*
D11*
G04 #@! TO.P,J4,S*
G04 #@! TO.N,GND*
X6480000Y12014200D03*
D10*
G04 #@! TO.P,J4,TN*
G04 #@! TO.N,Net-(J1-PadT)*
X3380000Y12014200D03*
G04 #@! TD*
G04 #@! TO.P,J3,TN*
G04 #@! TO.N,Net-(J3-PadTN)*
X3405400Y23977600D03*
D11*
G04 #@! TO.P,J3,S*
G04 #@! TO.N,GND*
X6505400Y23977600D03*
D12*
G04 #@! TO.P,J3,T*
G04 #@! TO.N,Net-(J1-PadT)*
X-4894600Y23977600D03*
G04 #@! TD*
G04 #@! TO.P,J2,T*
G04 #@! TO.N,Net-(J1-PadT)*
X-4920000Y35991800D03*
D11*
G04 #@! TO.P,J2,S*
G04 #@! TO.N,GND*
X6480000Y35991800D03*
D10*
G04 #@! TO.P,J2,TN*
G04 #@! TO.N,Net-(J2-PadTN)*
X3380000Y35991800D03*
G04 #@! TD*
G04 #@! TO.P,J1,TN*
G04 #@! TO.N,Net-(J1-PadTN)*
X3380000Y48006000D03*
D11*
G04 #@! TO.P,J1,S*
G04 #@! TO.N,GND*
X6480000Y48006000D03*
D12*
G04 #@! TO.P,J1,T*
G04 #@! TO.N,Net-(J1-PadT)*
X-4920000Y48006000D03*
G04 #@! TD*
D13*
G04 #@! TO.N,GND*
G36*
X8925000Y-52512460D02*
X-8925000Y-52512460D01*
X-8925000Y-47319594D01*
X-6305000Y-47319594D01*
X-6305000Y-48692407D01*
X-6224641Y-49096400D01*
X-5918528Y-49554529D01*
X-5460399Y-49860641D01*
X-4920000Y-49968133D01*
X-4379600Y-49860641D01*
X-3921471Y-49554529D01*
X-3615359Y-49096400D01*
X-3535000Y-48692407D01*
X-3535000Y-48026879D01*
X-1903272Y-48026879D01*
X-1776272Y-48788879D01*
X-1748564Y-48849303D01*
X-1113564Y-49611303D01*
X-1091607Y-49632042D01*
X-1046802Y-49653208D01*
X-30802Y-49907208D01*
X30802Y-49907208D01*
X1046802Y-49653208D01*
X1105803Y-49619803D01*
X1613803Y-49111803D01*
X1647208Y-49052802D01*
X1901208Y-48036802D01*
X1903272Y-47985121D01*
X1799864Y-47364668D01*
X1945000Y-47364668D01*
X1945000Y-48647333D01*
X2028260Y-49065909D01*
X2345424Y-49540577D01*
X2820092Y-49857740D01*
X3380000Y-49969113D01*
X3939909Y-49857740D01*
X4414577Y-49540577D01*
X4731740Y-49065909D01*
X4815000Y-48647333D01*
X4815000Y-48133000D01*
X5045000Y-48133000D01*
X5045000Y-48533000D01*
X5202834Y-49072483D01*
X5555104Y-49510500D01*
X6048181Y-49780367D01*
X6130961Y-49797904D01*
X6353000Y-49675915D01*
X6353000Y-48133000D01*
X6607000Y-48133000D01*
X6607000Y-49675915D01*
X6829039Y-49797904D01*
X6911819Y-49780367D01*
X7404896Y-49510500D01*
X7757166Y-49072483D01*
X7915000Y-48533000D01*
X7915000Y-48133000D01*
X6607000Y-48133000D01*
X6353000Y-48133000D01*
X5045000Y-48133000D01*
X4815000Y-48133000D01*
X4815000Y-47479000D01*
X5045000Y-47479000D01*
X5045000Y-47879000D01*
X6353000Y-47879000D01*
X6353000Y-46336085D01*
X6607000Y-46336085D01*
X6607000Y-47879000D01*
X7915000Y-47879000D01*
X7915000Y-47479000D01*
X7757166Y-46939517D01*
X7404896Y-46501500D01*
X6911819Y-46231633D01*
X6829039Y-46214096D01*
X6607000Y-46336085D01*
X6353000Y-46336085D01*
X6130961Y-46214096D01*
X6048181Y-46231633D01*
X5555104Y-46501500D01*
X5202834Y-46939517D01*
X5045000Y-47479000D01*
X4815000Y-47479000D01*
X4815000Y-47364667D01*
X4731740Y-46946091D01*
X4414576Y-46471423D01*
X3939908Y-46154260D01*
X3380000Y-46042887D01*
X2820091Y-46154260D01*
X2345423Y-46471424D01*
X2028260Y-46946092D01*
X1945000Y-47364668D01*
X1799864Y-47364668D01*
X1776272Y-47223121D01*
X1748564Y-47162697D01*
X1113564Y-46400697D01*
X1091607Y-46379958D01*
X1046802Y-46358792D01*
X30802Y-46104792D01*
X0Y-46101000D01*
X-127000Y-46101000D01*
X-151907Y-46103466D01*
X-786907Y-46230466D01*
X-843303Y-46257436D01*
X-1605303Y-46892436D01*
X-1626042Y-46914393D01*
X-1647208Y-46959198D01*
X-1901208Y-47975198D01*
X-1903272Y-48026879D01*
X-3535000Y-48026879D01*
X-3535000Y-47319593D01*
X-3615359Y-46915600D01*
X-3921472Y-46457471D01*
X-4379601Y-46151359D01*
X-4920000Y-46043867D01*
X-5460400Y-46151359D01*
X-5918529Y-46457472D01*
X-6224641Y-46915601D01*
X-6305000Y-47319594D01*
X-8925000Y-47319594D01*
X-8925000Y-35305394D01*
X-6305000Y-35305394D01*
X-6305000Y-36678207D01*
X-6224641Y-37082200D01*
X-5918528Y-37540329D01*
X-5460399Y-37846441D01*
X-4920000Y-37953933D01*
X-4379600Y-37846441D01*
X-3921471Y-37540329D01*
X-3615359Y-37082200D01*
X-3535000Y-36678207D01*
X-3535000Y-36088879D01*
X-1903272Y-36088879D01*
X-1776272Y-36850879D01*
X-1748564Y-36911303D01*
X-1113564Y-37673303D01*
X-1091607Y-37694042D01*
X-1046802Y-37715208D01*
X-30802Y-37969208D01*
X30802Y-37969208D01*
X1046802Y-37715208D01*
X1105803Y-37681803D01*
X1613803Y-37173803D01*
X1647208Y-37114802D01*
X1901208Y-36098802D01*
X1903272Y-36047121D01*
X1787164Y-35350468D01*
X1945000Y-35350468D01*
X1945000Y-36633133D01*
X2028260Y-37051709D01*
X2345424Y-37526377D01*
X2820092Y-37843540D01*
X3380000Y-37954913D01*
X3939909Y-37843540D01*
X4414577Y-37526377D01*
X4731740Y-37051709D01*
X4815000Y-36633133D01*
X4815000Y-36118800D01*
X5045000Y-36118800D01*
X5045000Y-36518800D01*
X5202834Y-37058283D01*
X5555104Y-37496300D01*
X6048181Y-37766167D01*
X6130961Y-37783704D01*
X6353000Y-37661715D01*
X6353000Y-36118800D01*
X6607000Y-36118800D01*
X6607000Y-37661715D01*
X6829039Y-37783704D01*
X6911819Y-37766167D01*
X7404896Y-37496300D01*
X7757166Y-37058283D01*
X7915000Y-36518800D01*
X7915000Y-36118800D01*
X6607000Y-36118800D01*
X6353000Y-36118800D01*
X5045000Y-36118800D01*
X4815000Y-36118800D01*
X4815000Y-35464800D01*
X5045000Y-35464800D01*
X5045000Y-35864800D01*
X6353000Y-35864800D01*
X6353000Y-34321885D01*
X6607000Y-34321885D01*
X6607000Y-35864800D01*
X7915000Y-35864800D01*
X7915000Y-35464800D01*
X7757166Y-34925317D01*
X7404896Y-34487300D01*
X6911819Y-34217433D01*
X6829039Y-34199896D01*
X6607000Y-34321885D01*
X6353000Y-34321885D01*
X6130961Y-34199896D01*
X6048181Y-34217433D01*
X5555104Y-34487300D01*
X5202834Y-34925317D01*
X5045000Y-35464800D01*
X4815000Y-35464800D01*
X4815000Y-35350467D01*
X4731740Y-34931891D01*
X4414576Y-34457223D01*
X3939908Y-34140060D01*
X3380000Y-34028687D01*
X2820091Y-34140060D01*
X2345423Y-34457224D01*
X2028260Y-34931892D01*
X1945000Y-35350468D01*
X1787164Y-35350468D01*
X1776272Y-35285121D01*
X1748564Y-35224697D01*
X1113564Y-34462697D01*
X1091607Y-34441958D01*
X1046802Y-34420792D01*
X30802Y-34166792D01*
X0Y-34163000D01*
X-127000Y-34163000D01*
X-151907Y-34165466D01*
X-786907Y-34292466D01*
X-843303Y-34319436D01*
X-1605303Y-34954436D01*
X-1626042Y-34976393D01*
X-1647208Y-35021198D01*
X-1901208Y-36037198D01*
X-1903272Y-36088879D01*
X-3535000Y-36088879D01*
X-3535000Y-35305393D01*
X-3615359Y-34901400D01*
X-3921472Y-34443271D01*
X-4379601Y-34137159D01*
X-4920000Y-34029667D01*
X-5460400Y-34137159D01*
X-5918529Y-34443272D01*
X-6224641Y-34901401D01*
X-6305000Y-35305394D01*
X-8925000Y-35305394D01*
X-8925000Y-23316594D01*
X-6305000Y-23316594D01*
X-6305000Y-24689407D01*
X-6224641Y-25093400D01*
X-5918528Y-25551529D01*
X-5460399Y-25857641D01*
X-4920000Y-25965133D01*
X-4379600Y-25857641D01*
X-3921471Y-25551529D01*
X-3615359Y-25093400D01*
X-3535000Y-24689407D01*
X-3535000Y-24023879D01*
X-1903272Y-24023879D01*
X-1776272Y-24785879D01*
X-1748564Y-24846303D01*
X-1113564Y-25608303D01*
X-1091607Y-25629042D01*
X-1046802Y-25650208D01*
X-30802Y-25904208D01*
X30802Y-25904208D01*
X1046802Y-25650208D01*
X1105803Y-25616803D01*
X1613803Y-25108803D01*
X1647208Y-25049802D01*
X1901208Y-24033802D01*
X1903272Y-23982121D01*
X1799864Y-23361668D01*
X1945000Y-23361668D01*
X1945000Y-24644333D01*
X2028260Y-25062909D01*
X2345424Y-25537577D01*
X2820092Y-25854740D01*
X3380000Y-25966113D01*
X3939909Y-25854740D01*
X4414577Y-25537577D01*
X4731740Y-25062909D01*
X4815000Y-24644333D01*
X4815000Y-24130000D01*
X5045000Y-24130000D01*
X5045000Y-24530000D01*
X5202834Y-25069483D01*
X5555104Y-25507500D01*
X6048181Y-25777367D01*
X6130961Y-25794904D01*
X6353000Y-25672915D01*
X6353000Y-24130000D01*
X6607000Y-24130000D01*
X6607000Y-25672915D01*
X6829039Y-25794904D01*
X6911819Y-25777367D01*
X7404896Y-25507500D01*
X7757166Y-25069483D01*
X7915000Y-24530000D01*
X7915000Y-24130000D01*
X6607000Y-24130000D01*
X6353000Y-24130000D01*
X5045000Y-24130000D01*
X4815000Y-24130000D01*
X4815000Y-23476000D01*
X5045000Y-23476000D01*
X5045000Y-23876000D01*
X6353000Y-23876000D01*
X6353000Y-22333085D01*
X6607000Y-22333085D01*
X6607000Y-23876000D01*
X7915000Y-23876000D01*
X7915000Y-23476000D01*
X7757166Y-22936517D01*
X7404896Y-22498500D01*
X6911819Y-22228633D01*
X6829039Y-22211096D01*
X6607000Y-22333085D01*
X6353000Y-22333085D01*
X6130961Y-22211096D01*
X6048181Y-22228633D01*
X5555104Y-22498500D01*
X5202834Y-22936517D01*
X5045000Y-23476000D01*
X4815000Y-23476000D01*
X4815000Y-23361667D01*
X4731740Y-22943091D01*
X4414576Y-22468423D01*
X3939908Y-22151260D01*
X3380000Y-22039887D01*
X2820091Y-22151260D01*
X2345423Y-22468424D01*
X2028260Y-22943092D01*
X1945000Y-23361668D01*
X1799864Y-23361668D01*
X1776272Y-23220121D01*
X1748564Y-23159697D01*
X1113564Y-22397697D01*
X1091607Y-22376958D01*
X1046802Y-22355792D01*
X30802Y-22101792D01*
X0Y-22098000D01*
X-127000Y-22098000D01*
X-151907Y-22100466D01*
X-786907Y-22227466D01*
X-843303Y-22254436D01*
X-1605303Y-22889436D01*
X-1626042Y-22911393D01*
X-1647208Y-22956198D01*
X-1901208Y-23972198D01*
X-1903272Y-24023879D01*
X-3535000Y-24023879D01*
X-3535000Y-23316593D01*
X-3615359Y-22912600D01*
X-3921472Y-22454471D01*
X-4379601Y-22148359D01*
X-4920000Y-22040867D01*
X-5460400Y-22148359D01*
X-5918529Y-22454472D01*
X-6224641Y-22912601D01*
X-6305000Y-23316594D01*
X-8925000Y-23316594D01*
X-8925000Y-11302394D01*
X-6330400Y-11302394D01*
X-6330400Y-12675207D01*
X-6250041Y-13079200D01*
X-5943928Y-13537329D01*
X-5485799Y-13843441D01*
X-4945400Y-13950933D01*
X-4405000Y-13843441D01*
X-3946871Y-13537329D01*
X-3640759Y-13079200D01*
X-3560400Y-12675207D01*
X-3560400Y-11958879D01*
X-1903272Y-11958879D01*
X-1776272Y-12720879D01*
X-1748564Y-12781303D01*
X-1113564Y-13543303D01*
X-1091607Y-13564042D01*
X-1046802Y-13585208D01*
X-30802Y-13839208D01*
X30802Y-13839208D01*
X1046802Y-13585208D01*
X1105803Y-13551803D01*
X1613803Y-13043803D01*
X1647208Y-12984802D01*
X1901208Y-11968802D01*
X1903272Y-11917121D01*
X1808330Y-11347468D01*
X1919600Y-11347468D01*
X1919600Y-12630133D01*
X2002860Y-13048709D01*
X2320024Y-13523377D01*
X2794692Y-13840540D01*
X3354600Y-13951913D01*
X3914509Y-13840540D01*
X4389177Y-13523377D01*
X4706340Y-13048709D01*
X4789600Y-12630133D01*
X4789600Y-12115800D01*
X5019600Y-12115800D01*
X5019600Y-12515800D01*
X5177434Y-13055283D01*
X5529704Y-13493300D01*
X6022781Y-13763167D01*
X6105561Y-13780704D01*
X6327600Y-13658715D01*
X6327600Y-12115800D01*
X6581600Y-12115800D01*
X6581600Y-13658715D01*
X6803639Y-13780704D01*
X6886419Y-13763167D01*
X7379496Y-13493300D01*
X7731766Y-13055283D01*
X7889600Y-12515800D01*
X7889600Y-12115800D01*
X6581600Y-12115800D01*
X6327600Y-12115800D01*
X5019600Y-12115800D01*
X4789600Y-12115800D01*
X4789600Y-11461800D01*
X5019600Y-11461800D01*
X5019600Y-11861800D01*
X6327600Y-11861800D01*
X6327600Y-10318885D01*
X6581600Y-10318885D01*
X6581600Y-11861800D01*
X7889600Y-11861800D01*
X7889600Y-11461800D01*
X7731766Y-10922317D01*
X7379496Y-10484300D01*
X6886419Y-10214433D01*
X6803639Y-10196896D01*
X6581600Y-10318885D01*
X6327600Y-10318885D01*
X6105561Y-10196896D01*
X6022781Y-10214433D01*
X5529704Y-10484300D01*
X5177434Y-10922317D01*
X5019600Y-11461800D01*
X4789600Y-11461800D01*
X4789600Y-11347467D01*
X4706340Y-10928891D01*
X4389176Y-10454223D01*
X3914508Y-10137060D01*
X3354600Y-10025687D01*
X2794691Y-10137060D01*
X2320023Y-10454224D01*
X2002860Y-10928892D01*
X1919600Y-11347468D01*
X1808330Y-11347468D01*
X1776272Y-11155121D01*
X1748564Y-11094697D01*
X1113564Y-10332697D01*
X1091607Y-10311958D01*
X1046802Y-10290792D01*
X30802Y-10036792D01*
X0Y-10033000D01*
X-127000Y-10033000D01*
X-151907Y-10035466D01*
X-786907Y-10162466D01*
X-843303Y-10189436D01*
X-1605303Y-10824436D01*
X-1626042Y-10846393D01*
X-1647208Y-10891198D01*
X-1901208Y-11907198D01*
X-1903272Y-11958879D01*
X-3560400Y-11958879D01*
X-3560400Y-11302393D01*
X-3640759Y-10898400D01*
X-3946872Y-10440271D01*
X-4405001Y-10134159D01*
X-4945400Y-10026667D01*
X-5485800Y-10134159D01*
X-5943929Y-10440272D01*
X-6250041Y-10898401D01*
X-6330400Y-11302394D01*
X-8925000Y-11302394D01*
X-8925000Y686406D01*
X-6305000Y686406D01*
X-6305000Y-686407D01*
X-6224641Y-1090400D01*
X-5918528Y-1548529D01*
X-5460399Y-1854641D01*
X-4920000Y-1962133D01*
X-4379600Y-1854641D01*
X-3921471Y-1548529D01*
X-3615359Y-1090400D01*
X-3535000Y-686407D01*
X-3535000Y641332D01*
X1945000Y641332D01*
X1945000Y-641333D01*
X2028260Y-1059909D01*
X2345424Y-1534577D01*
X2820092Y-1851740D01*
X3380000Y-1963113D01*
X3939909Y-1851740D01*
X4414577Y-1534577D01*
X4731740Y-1059909D01*
X4815000Y-641333D01*
X4815000Y-127000D01*
X5045000Y-127000D01*
X5045000Y-527000D01*
X5202834Y-1066483D01*
X5555104Y-1504500D01*
X6048181Y-1774367D01*
X6130961Y-1791904D01*
X6353000Y-1669915D01*
X6353000Y-127000D01*
X6607000Y-127000D01*
X6607000Y-1669915D01*
X6829039Y-1791904D01*
X6911819Y-1774367D01*
X7404896Y-1504500D01*
X7757166Y-1066483D01*
X7915000Y-527000D01*
X7915000Y-127000D01*
X6607000Y-127000D01*
X6353000Y-127000D01*
X5045000Y-127000D01*
X4815000Y-127000D01*
X4815000Y527000D01*
X5045000Y527000D01*
X5045000Y127000D01*
X6353000Y127000D01*
X6353000Y1669915D01*
X6607000Y1669915D01*
X6607000Y127000D01*
X7915000Y127000D01*
X7915000Y527000D01*
X7757166Y1066483D01*
X7404896Y1504500D01*
X6911819Y1774367D01*
X6829039Y1791904D01*
X6607000Y1669915D01*
X6353000Y1669915D01*
X6130961Y1791904D01*
X6048181Y1774367D01*
X5555104Y1504500D01*
X5202834Y1066483D01*
X5045000Y527000D01*
X4815000Y527000D01*
X4815000Y641333D01*
X4731740Y1059909D01*
X4414576Y1534577D01*
X3939908Y1851740D01*
X3380000Y1963113D01*
X2820091Y1851740D01*
X2345423Y1534576D01*
X2028260Y1059908D01*
X1945000Y641332D01*
X-3535000Y641332D01*
X-3535000Y686407D01*
X-3615359Y1090400D01*
X-3921472Y1548529D01*
X-4379601Y1854641D01*
X-4920000Y1962133D01*
X-5460400Y1854641D01*
X-5918529Y1548528D01*
X-6224641Y1090399D01*
X-6305000Y686406D01*
X-8925000Y686406D01*
X-8925000Y12700606D01*
X-6305000Y12700606D01*
X-6305000Y11327793D01*
X-6224641Y10923800D01*
X-5918528Y10465671D01*
X-5460399Y10159559D01*
X-4920000Y10052067D01*
X-4379600Y10159559D01*
X-3921471Y10465671D01*
X-3615359Y10923800D01*
X-3535000Y11327793D01*
X-3535000Y12044121D01*
X-1886300Y12044121D01*
X-1759300Y11282121D01*
X-1731592Y11221697D01*
X-1096592Y10459697D01*
X-1074635Y10438958D01*
X-1029830Y10417792D01*
X-13830Y10163792D01*
X47774Y10163792D01*
X1063774Y10417792D01*
X1122775Y10451197D01*
X1630775Y10959197D01*
X1664180Y11018198D01*
X1918180Y12034198D01*
X1920244Y12085879D01*
X1825302Y12655532D01*
X1945000Y12655532D01*
X1945000Y11372867D01*
X2028260Y10954291D01*
X2345424Y10479623D01*
X2820092Y10162460D01*
X3380000Y10051087D01*
X3939909Y10162460D01*
X4414577Y10479623D01*
X4731740Y10954291D01*
X4815000Y11372867D01*
X4815000Y11887200D01*
X5045000Y11887200D01*
X5045000Y11487200D01*
X5202834Y10947717D01*
X5555104Y10509700D01*
X6048181Y10239833D01*
X6130961Y10222296D01*
X6353000Y10344285D01*
X6353000Y11887200D01*
X6607000Y11887200D01*
X6607000Y10344285D01*
X6829039Y10222296D01*
X6911819Y10239833D01*
X7404896Y10509700D01*
X7757166Y10947717D01*
X7915000Y11487200D01*
X7915000Y11887200D01*
X6607000Y11887200D01*
X6353000Y11887200D01*
X5045000Y11887200D01*
X4815000Y11887200D01*
X4815000Y12541200D01*
X5045000Y12541200D01*
X5045000Y12141200D01*
X6353000Y12141200D01*
X6353000Y13684115D01*
X6607000Y13684115D01*
X6607000Y12141200D01*
X7915000Y12141200D01*
X7915000Y12541200D01*
X7757166Y13080683D01*
X7404896Y13518700D01*
X6911819Y13788567D01*
X6829039Y13806104D01*
X6607000Y13684115D01*
X6353000Y13684115D01*
X6130961Y13806104D01*
X6048181Y13788567D01*
X5555104Y13518700D01*
X5202834Y13080683D01*
X5045000Y12541200D01*
X4815000Y12541200D01*
X4815000Y12655533D01*
X4731740Y13074109D01*
X4414576Y13548777D01*
X3939908Y13865940D01*
X3380000Y13977313D01*
X2820091Y13865940D01*
X2345423Y13548776D01*
X2028260Y13074108D01*
X1945000Y12655532D01*
X1825302Y12655532D01*
X1793244Y12847879D01*
X1765536Y12908303D01*
X1130536Y13670303D01*
X1108579Y13691042D01*
X1063774Y13712208D01*
X47774Y13966208D01*
X16972Y13970000D01*
X-110028Y13970000D01*
X-134935Y13967534D01*
X-769935Y13840534D01*
X-826331Y13813564D01*
X-1588331Y13178564D01*
X-1609070Y13156607D01*
X-1630236Y13111802D01*
X-1884236Y12095802D01*
X-1886300Y12044121D01*
X-3535000Y12044121D01*
X-3535000Y12700607D01*
X-3615359Y13104600D01*
X-3921472Y13562729D01*
X-4379601Y13868841D01*
X-4920000Y13976333D01*
X-5460400Y13868841D01*
X-5918529Y13562728D01*
X-6224641Y13104599D01*
X-6305000Y12700606D01*
X-8925000Y12700606D01*
X-8925000Y24664006D01*
X-6279600Y24664006D01*
X-6279600Y23291193D01*
X-6199241Y22887200D01*
X-5893128Y22429071D01*
X-5434999Y22122959D01*
X-4894600Y22015467D01*
X-4354200Y22122959D01*
X-3896071Y22429071D01*
X-3589959Y22887200D01*
X-3509600Y23291193D01*
X-3509600Y23982121D01*
X-1886300Y23982121D01*
X-1759300Y23220121D01*
X-1731592Y23159697D01*
X-1096592Y22397697D01*
X-1074635Y22376958D01*
X-1029830Y22355792D01*
X-13830Y22101792D01*
X47774Y22101792D01*
X1063774Y22355792D01*
X1122775Y22389197D01*
X1630775Y22897197D01*
X1664180Y22956198D01*
X1918180Y23972198D01*
X1920244Y24023879D01*
X1821069Y24618932D01*
X1970400Y24618932D01*
X1970400Y23336267D01*
X2053660Y22917691D01*
X2370824Y22443023D01*
X2845492Y22125860D01*
X3405400Y22014487D01*
X3965309Y22125860D01*
X4439977Y22443023D01*
X4757140Y22917691D01*
X4840400Y23336267D01*
X4840400Y23850600D01*
X5070400Y23850600D01*
X5070400Y23450600D01*
X5228234Y22911117D01*
X5580504Y22473100D01*
X6073581Y22203233D01*
X6156361Y22185696D01*
X6378400Y22307685D01*
X6378400Y23850600D01*
X6632400Y23850600D01*
X6632400Y22307685D01*
X6854439Y22185696D01*
X6937219Y22203233D01*
X7430296Y22473100D01*
X7782566Y22911117D01*
X7940400Y23450600D01*
X7940400Y23850600D01*
X6632400Y23850600D01*
X6378400Y23850600D01*
X5070400Y23850600D01*
X4840400Y23850600D01*
X4840400Y24504600D01*
X5070400Y24504600D01*
X5070400Y24104600D01*
X6378400Y24104600D01*
X6378400Y25647515D01*
X6632400Y25647515D01*
X6632400Y24104600D01*
X7940400Y24104600D01*
X7940400Y24504600D01*
X7782566Y25044083D01*
X7430296Y25482100D01*
X6937219Y25751967D01*
X6854439Y25769504D01*
X6632400Y25647515D01*
X6378400Y25647515D01*
X6156361Y25769504D01*
X6073581Y25751967D01*
X5580504Y25482100D01*
X5228234Y25044083D01*
X5070400Y24504600D01*
X4840400Y24504600D01*
X4840400Y24618933D01*
X4757140Y25037509D01*
X4439976Y25512177D01*
X3965308Y25829340D01*
X3405400Y25940713D01*
X2845491Y25829340D01*
X2370823Y25512176D01*
X2053660Y25037508D01*
X1970400Y24618932D01*
X1821069Y24618932D01*
X1793244Y24785879D01*
X1765536Y24846303D01*
X1130536Y25608303D01*
X1108579Y25629042D01*
X1063774Y25650208D01*
X47774Y25904208D01*
X16972Y25908000D01*
X-110028Y25908000D01*
X-134935Y25905534D01*
X-769935Y25778534D01*
X-826331Y25751564D01*
X-1588331Y25116564D01*
X-1609070Y25094607D01*
X-1630236Y25049802D01*
X-1884236Y24033802D01*
X-1886300Y23982121D01*
X-3509600Y23982121D01*
X-3509600Y24664007D01*
X-3589959Y25068000D01*
X-3896072Y25526129D01*
X-4354201Y25832241D01*
X-4894600Y25939733D01*
X-5435000Y25832241D01*
X-5893129Y25526128D01*
X-6199241Y25067999D01*
X-6279600Y24664006D01*
X-8925000Y24664006D01*
X-8925000Y36678206D01*
X-6305000Y36678206D01*
X-6305000Y35305393D01*
X-6224641Y34901400D01*
X-5918528Y34443271D01*
X-5460399Y34137159D01*
X-4920000Y34029667D01*
X-4379600Y34137159D01*
X-3921471Y34443271D01*
X-3615359Y34901400D01*
X-3535000Y35305393D01*
X-3535000Y35988009D01*
X-1886300Y35988009D01*
X-1759300Y35226009D01*
X-1731592Y35165585D01*
X-1096592Y34403585D01*
X-1074635Y34382846D01*
X-1029830Y34361680D01*
X-13830Y34107680D01*
X47774Y34107680D01*
X1063774Y34361680D01*
X1122775Y34395085D01*
X1630775Y34903085D01*
X1664180Y34962086D01*
X1918180Y35978086D01*
X1920244Y36029767D01*
X1819684Y36633132D01*
X1945000Y36633132D01*
X1945000Y35350467D01*
X2028260Y34931891D01*
X2345424Y34457223D01*
X2820092Y34140060D01*
X3380000Y34028687D01*
X3939909Y34140060D01*
X4414577Y34457223D01*
X4731740Y34931891D01*
X4815000Y35350467D01*
X4815000Y35864800D01*
X5045000Y35864800D01*
X5045000Y35464800D01*
X5202834Y34925317D01*
X5555104Y34487300D01*
X6048181Y34217433D01*
X6130961Y34199896D01*
X6353000Y34321885D01*
X6353000Y35864800D01*
X6607000Y35864800D01*
X6607000Y34321885D01*
X6829039Y34199896D01*
X6911819Y34217433D01*
X7404896Y34487300D01*
X7757166Y34925317D01*
X7915000Y35464800D01*
X7915000Y35864800D01*
X6607000Y35864800D01*
X6353000Y35864800D01*
X5045000Y35864800D01*
X4815000Y35864800D01*
X4815000Y36518800D01*
X5045000Y36518800D01*
X5045000Y36118800D01*
X6353000Y36118800D01*
X6353000Y37661715D01*
X6607000Y37661715D01*
X6607000Y36118800D01*
X7915000Y36118800D01*
X7915000Y36518800D01*
X7757166Y37058283D01*
X7404896Y37496300D01*
X6911819Y37766167D01*
X6829039Y37783704D01*
X6607000Y37661715D01*
X6353000Y37661715D01*
X6130961Y37783704D01*
X6048181Y37766167D01*
X5555104Y37496300D01*
X5202834Y37058283D01*
X5045000Y36518800D01*
X4815000Y36518800D01*
X4815000Y36633133D01*
X4731740Y37051709D01*
X4414576Y37526377D01*
X3939908Y37843540D01*
X3380000Y37954913D01*
X2820091Y37843540D01*
X2345423Y37526376D01*
X2028260Y37051708D01*
X1945000Y36633132D01*
X1819684Y36633132D01*
X1793244Y36791767D01*
X1765536Y36852191D01*
X1130536Y37614191D01*
X1108579Y37634930D01*
X1063774Y37656096D01*
X47774Y37910096D01*
X16972Y37913888D01*
X-110028Y37913888D01*
X-134935Y37911422D01*
X-769935Y37784422D01*
X-826331Y37757452D01*
X-1588331Y37122452D01*
X-1609070Y37100495D01*
X-1630236Y37055690D01*
X-1884236Y36039690D01*
X-1886300Y35988009D01*
X-3535000Y35988009D01*
X-3535000Y36678207D01*
X-3615359Y37082200D01*
X-3921472Y37540329D01*
X-4379601Y37846441D01*
X-4920000Y37953933D01*
X-5460400Y37846441D01*
X-5918529Y37540328D01*
X-6224641Y37082199D01*
X-6305000Y36678206D01*
X-8925000Y36678206D01*
X-8925000Y48692406D01*
X-6305000Y48692406D01*
X-6305000Y47319593D01*
X-6224641Y46915600D01*
X-5918528Y46457471D01*
X-5460399Y46151359D01*
X-4920000Y46043867D01*
X-4379600Y46151359D01*
X-3921471Y46457471D01*
X-3615359Y46915600D01*
X-3535000Y47319593D01*
X-3535000Y47985121D01*
X-1903272Y47985121D01*
X-1776272Y47223121D01*
X-1748564Y47162697D01*
X-1113564Y46400697D01*
X-1091607Y46379958D01*
X-1046802Y46358792D01*
X-30802Y46104792D01*
X30802Y46104792D01*
X1046802Y46358792D01*
X1105803Y46392197D01*
X1613803Y46900197D01*
X1647208Y46959198D01*
X1901208Y47975198D01*
X1903272Y48026879D01*
X1799864Y48647332D01*
X1945000Y48647332D01*
X1945000Y47364667D01*
X2028260Y46946091D01*
X2345424Y46471423D01*
X2820092Y46154260D01*
X3380000Y46042887D01*
X3939909Y46154260D01*
X4414577Y46471423D01*
X4731740Y46946091D01*
X4815000Y47364667D01*
X4815000Y47879000D01*
X5045000Y47879000D01*
X5045000Y47479000D01*
X5202834Y46939517D01*
X5555104Y46501500D01*
X6048181Y46231633D01*
X6130961Y46214096D01*
X6353000Y46336085D01*
X6353000Y47879000D01*
X6607000Y47879000D01*
X6607000Y46336085D01*
X6829039Y46214096D01*
X6911819Y46231633D01*
X7404896Y46501500D01*
X7757166Y46939517D01*
X7915000Y47479000D01*
X7915000Y47879000D01*
X6607000Y47879000D01*
X6353000Y47879000D01*
X5045000Y47879000D01*
X4815000Y47879000D01*
X4815000Y48533000D01*
X5045000Y48533000D01*
X5045000Y48133000D01*
X6353000Y48133000D01*
X6353000Y49675915D01*
X6607000Y49675915D01*
X6607000Y48133000D01*
X7915000Y48133000D01*
X7915000Y48533000D01*
X7757166Y49072483D01*
X7404896Y49510500D01*
X6911819Y49780367D01*
X6829039Y49797904D01*
X6607000Y49675915D01*
X6353000Y49675915D01*
X6130961Y49797904D01*
X6048181Y49780367D01*
X5555104Y49510500D01*
X5202834Y49072483D01*
X5045000Y48533000D01*
X4815000Y48533000D01*
X4815000Y48647333D01*
X4731740Y49065909D01*
X4414576Y49540577D01*
X3939908Y49857740D01*
X3380000Y49969113D01*
X2820091Y49857740D01*
X2345423Y49540576D01*
X2028260Y49065908D01*
X1945000Y48647332D01*
X1799864Y48647332D01*
X1776272Y48788879D01*
X1748564Y48849303D01*
X1113564Y49611303D01*
X1091607Y49632042D01*
X1046802Y49653208D01*
X30802Y49907208D01*
X0Y49911000D01*
X-127000Y49911000D01*
X-151907Y49908534D01*
X-786907Y49781534D01*
X-843303Y49754564D01*
X-1605303Y49119564D01*
X-1626042Y49097607D01*
X-1647208Y49052802D01*
X-1901208Y48036802D01*
X-1903272Y47985121D01*
X-3535000Y47985121D01*
X-3535000Y48692407D01*
X-3615359Y49096400D01*
X-3921472Y49554529D01*
X-4379601Y49860641D01*
X-4920000Y49968133D01*
X-5460400Y49860641D01*
X-5918529Y49554528D01*
X-6224641Y49096399D01*
X-6305000Y48692406D01*
X-8925000Y48692406D01*
X-8925000Y52517540D01*
X8925001Y52517540D01*
X8925000Y-52512460D01*
X8925000Y-52512460D01*
G37*
X8925000Y-52512460D02*
X-8925000Y-52512460D01*
X-8925000Y-47319594D01*
X-6305000Y-47319594D01*
X-6305000Y-48692407D01*
X-6224641Y-49096400D01*
X-5918528Y-49554529D01*
X-5460399Y-49860641D01*
X-4920000Y-49968133D01*
X-4379600Y-49860641D01*
X-3921471Y-49554529D01*
X-3615359Y-49096400D01*
X-3535000Y-48692407D01*
X-3535000Y-48026879D01*
X-1903272Y-48026879D01*
X-1776272Y-48788879D01*
X-1748564Y-48849303D01*
X-1113564Y-49611303D01*
X-1091607Y-49632042D01*
X-1046802Y-49653208D01*
X-30802Y-49907208D01*
X30802Y-49907208D01*
X1046802Y-49653208D01*
X1105803Y-49619803D01*
X1613803Y-49111803D01*
X1647208Y-49052802D01*
X1901208Y-48036802D01*
X1903272Y-47985121D01*
X1799864Y-47364668D01*
X1945000Y-47364668D01*
X1945000Y-48647333D01*
X2028260Y-49065909D01*
X2345424Y-49540577D01*
X2820092Y-49857740D01*
X3380000Y-49969113D01*
X3939909Y-49857740D01*
X4414577Y-49540577D01*
X4731740Y-49065909D01*
X4815000Y-48647333D01*
X4815000Y-48133000D01*
X5045000Y-48133000D01*
X5045000Y-48533000D01*
X5202834Y-49072483D01*
X5555104Y-49510500D01*
X6048181Y-49780367D01*
X6130961Y-49797904D01*
X6353000Y-49675915D01*
X6353000Y-48133000D01*
X6607000Y-48133000D01*
X6607000Y-49675915D01*
X6829039Y-49797904D01*
X6911819Y-49780367D01*
X7404896Y-49510500D01*
X7757166Y-49072483D01*
X7915000Y-48533000D01*
X7915000Y-48133000D01*
X6607000Y-48133000D01*
X6353000Y-48133000D01*
X5045000Y-48133000D01*
X4815000Y-48133000D01*
X4815000Y-47479000D01*
X5045000Y-47479000D01*
X5045000Y-47879000D01*
X6353000Y-47879000D01*
X6353000Y-46336085D01*
X6607000Y-46336085D01*
X6607000Y-47879000D01*
X7915000Y-47879000D01*
X7915000Y-47479000D01*
X7757166Y-46939517D01*
X7404896Y-46501500D01*
X6911819Y-46231633D01*
X6829039Y-46214096D01*
X6607000Y-46336085D01*
X6353000Y-46336085D01*
X6130961Y-46214096D01*
X6048181Y-46231633D01*
X5555104Y-46501500D01*
X5202834Y-46939517D01*
X5045000Y-47479000D01*
X4815000Y-47479000D01*
X4815000Y-47364667D01*
X4731740Y-46946091D01*
X4414576Y-46471423D01*
X3939908Y-46154260D01*
X3380000Y-46042887D01*
X2820091Y-46154260D01*
X2345423Y-46471424D01*
X2028260Y-46946092D01*
X1945000Y-47364668D01*
X1799864Y-47364668D01*
X1776272Y-47223121D01*
X1748564Y-47162697D01*
X1113564Y-46400697D01*
X1091607Y-46379958D01*
X1046802Y-46358792D01*
X30802Y-46104792D01*
X0Y-46101000D01*
X-127000Y-46101000D01*
X-151907Y-46103466D01*
X-786907Y-46230466D01*
X-843303Y-46257436D01*
X-1605303Y-46892436D01*
X-1626042Y-46914393D01*
X-1647208Y-46959198D01*
X-1901208Y-47975198D01*
X-1903272Y-48026879D01*
X-3535000Y-48026879D01*
X-3535000Y-47319593D01*
X-3615359Y-46915600D01*
X-3921472Y-46457471D01*
X-4379601Y-46151359D01*
X-4920000Y-46043867D01*
X-5460400Y-46151359D01*
X-5918529Y-46457472D01*
X-6224641Y-46915601D01*
X-6305000Y-47319594D01*
X-8925000Y-47319594D01*
X-8925000Y-35305394D01*
X-6305000Y-35305394D01*
X-6305000Y-36678207D01*
X-6224641Y-37082200D01*
X-5918528Y-37540329D01*
X-5460399Y-37846441D01*
X-4920000Y-37953933D01*
X-4379600Y-37846441D01*
X-3921471Y-37540329D01*
X-3615359Y-37082200D01*
X-3535000Y-36678207D01*
X-3535000Y-36088879D01*
X-1903272Y-36088879D01*
X-1776272Y-36850879D01*
X-1748564Y-36911303D01*
X-1113564Y-37673303D01*
X-1091607Y-37694042D01*
X-1046802Y-37715208D01*
X-30802Y-37969208D01*
X30802Y-37969208D01*
X1046802Y-37715208D01*
X1105803Y-37681803D01*
X1613803Y-37173803D01*
X1647208Y-37114802D01*
X1901208Y-36098802D01*
X1903272Y-36047121D01*
X1787164Y-35350468D01*
X1945000Y-35350468D01*
X1945000Y-36633133D01*
X2028260Y-37051709D01*
X2345424Y-37526377D01*
X2820092Y-37843540D01*
X3380000Y-37954913D01*
X3939909Y-37843540D01*
X4414577Y-37526377D01*
X4731740Y-37051709D01*
X4815000Y-36633133D01*
X4815000Y-36118800D01*
X5045000Y-36118800D01*
X5045000Y-36518800D01*
X5202834Y-37058283D01*
X5555104Y-37496300D01*
X6048181Y-37766167D01*
X6130961Y-37783704D01*
X6353000Y-37661715D01*
X6353000Y-36118800D01*
X6607000Y-36118800D01*
X6607000Y-37661715D01*
X6829039Y-37783704D01*
X6911819Y-37766167D01*
X7404896Y-37496300D01*
X7757166Y-37058283D01*
X7915000Y-36518800D01*
X7915000Y-36118800D01*
X6607000Y-36118800D01*
X6353000Y-36118800D01*
X5045000Y-36118800D01*
X4815000Y-36118800D01*
X4815000Y-35464800D01*
X5045000Y-35464800D01*
X5045000Y-35864800D01*
X6353000Y-35864800D01*
X6353000Y-34321885D01*
X6607000Y-34321885D01*
X6607000Y-35864800D01*
X7915000Y-35864800D01*
X7915000Y-35464800D01*
X7757166Y-34925317D01*
X7404896Y-34487300D01*
X6911819Y-34217433D01*
X6829039Y-34199896D01*
X6607000Y-34321885D01*
X6353000Y-34321885D01*
X6130961Y-34199896D01*
X6048181Y-34217433D01*
X5555104Y-34487300D01*
X5202834Y-34925317D01*
X5045000Y-35464800D01*
X4815000Y-35464800D01*
X4815000Y-35350467D01*
X4731740Y-34931891D01*
X4414576Y-34457223D01*
X3939908Y-34140060D01*
X3380000Y-34028687D01*
X2820091Y-34140060D01*
X2345423Y-34457224D01*
X2028260Y-34931892D01*
X1945000Y-35350468D01*
X1787164Y-35350468D01*
X1776272Y-35285121D01*
X1748564Y-35224697D01*
X1113564Y-34462697D01*
X1091607Y-34441958D01*
X1046802Y-34420792D01*
X30802Y-34166792D01*
X0Y-34163000D01*
X-127000Y-34163000D01*
X-151907Y-34165466D01*
X-786907Y-34292466D01*
X-843303Y-34319436D01*
X-1605303Y-34954436D01*
X-1626042Y-34976393D01*
X-1647208Y-35021198D01*
X-1901208Y-36037198D01*
X-1903272Y-36088879D01*
X-3535000Y-36088879D01*
X-3535000Y-35305393D01*
X-3615359Y-34901400D01*
X-3921472Y-34443271D01*
X-4379601Y-34137159D01*
X-4920000Y-34029667D01*
X-5460400Y-34137159D01*
X-5918529Y-34443272D01*
X-6224641Y-34901401D01*
X-6305000Y-35305394D01*
X-8925000Y-35305394D01*
X-8925000Y-23316594D01*
X-6305000Y-23316594D01*
X-6305000Y-24689407D01*
X-6224641Y-25093400D01*
X-5918528Y-25551529D01*
X-5460399Y-25857641D01*
X-4920000Y-25965133D01*
X-4379600Y-25857641D01*
X-3921471Y-25551529D01*
X-3615359Y-25093400D01*
X-3535000Y-24689407D01*
X-3535000Y-24023879D01*
X-1903272Y-24023879D01*
X-1776272Y-24785879D01*
X-1748564Y-24846303D01*
X-1113564Y-25608303D01*
X-1091607Y-25629042D01*
X-1046802Y-25650208D01*
X-30802Y-25904208D01*
X30802Y-25904208D01*
X1046802Y-25650208D01*
X1105803Y-25616803D01*
X1613803Y-25108803D01*
X1647208Y-25049802D01*
X1901208Y-24033802D01*
X1903272Y-23982121D01*
X1799864Y-23361668D01*
X1945000Y-23361668D01*
X1945000Y-24644333D01*
X2028260Y-25062909D01*
X2345424Y-25537577D01*
X2820092Y-25854740D01*
X3380000Y-25966113D01*
X3939909Y-25854740D01*
X4414577Y-25537577D01*
X4731740Y-25062909D01*
X4815000Y-24644333D01*
X4815000Y-24130000D01*
X5045000Y-24130000D01*
X5045000Y-24530000D01*
X5202834Y-25069483D01*
X5555104Y-25507500D01*
X6048181Y-25777367D01*
X6130961Y-25794904D01*
X6353000Y-25672915D01*
X6353000Y-24130000D01*
X6607000Y-24130000D01*
X6607000Y-25672915D01*
X6829039Y-25794904D01*
X6911819Y-25777367D01*
X7404896Y-25507500D01*
X7757166Y-25069483D01*
X7915000Y-24530000D01*
X7915000Y-24130000D01*
X6607000Y-24130000D01*
X6353000Y-24130000D01*
X5045000Y-24130000D01*
X4815000Y-24130000D01*
X4815000Y-23476000D01*
X5045000Y-23476000D01*
X5045000Y-23876000D01*
X6353000Y-23876000D01*
X6353000Y-22333085D01*
X6607000Y-22333085D01*
X6607000Y-23876000D01*
X7915000Y-23876000D01*
X7915000Y-23476000D01*
X7757166Y-22936517D01*
X7404896Y-22498500D01*
X6911819Y-22228633D01*
X6829039Y-22211096D01*
X6607000Y-22333085D01*
X6353000Y-22333085D01*
X6130961Y-22211096D01*
X6048181Y-22228633D01*
X5555104Y-22498500D01*
X5202834Y-22936517D01*
X5045000Y-23476000D01*
X4815000Y-23476000D01*
X4815000Y-23361667D01*
X4731740Y-22943091D01*
X4414576Y-22468423D01*
X3939908Y-22151260D01*
X3380000Y-22039887D01*
X2820091Y-22151260D01*
X2345423Y-22468424D01*
X2028260Y-22943092D01*
X1945000Y-23361668D01*
X1799864Y-23361668D01*
X1776272Y-23220121D01*
X1748564Y-23159697D01*
X1113564Y-22397697D01*
X1091607Y-22376958D01*
X1046802Y-22355792D01*
X30802Y-22101792D01*
X0Y-22098000D01*
X-127000Y-22098000D01*
X-151907Y-22100466D01*
X-786907Y-22227466D01*
X-843303Y-22254436D01*
X-1605303Y-22889436D01*
X-1626042Y-22911393D01*
X-1647208Y-22956198D01*
X-1901208Y-23972198D01*
X-1903272Y-24023879D01*
X-3535000Y-24023879D01*
X-3535000Y-23316593D01*
X-3615359Y-22912600D01*
X-3921472Y-22454471D01*
X-4379601Y-22148359D01*
X-4920000Y-22040867D01*
X-5460400Y-22148359D01*
X-5918529Y-22454472D01*
X-6224641Y-22912601D01*
X-6305000Y-23316594D01*
X-8925000Y-23316594D01*
X-8925000Y-11302394D01*
X-6330400Y-11302394D01*
X-6330400Y-12675207D01*
X-6250041Y-13079200D01*
X-5943928Y-13537329D01*
X-5485799Y-13843441D01*
X-4945400Y-13950933D01*
X-4405000Y-13843441D01*
X-3946871Y-13537329D01*
X-3640759Y-13079200D01*
X-3560400Y-12675207D01*
X-3560400Y-11958879D01*
X-1903272Y-11958879D01*
X-1776272Y-12720879D01*
X-1748564Y-12781303D01*
X-1113564Y-13543303D01*
X-1091607Y-13564042D01*
X-1046802Y-13585208D01*
X-30802Y-13839208D01*
X30802Y-13839208D01*
X1046802Y-13585208D01*
X1105803Y-13551803D01*
X1613803Y-13043803D01*
X1647208Y-12984802D01*
X1901208Y-11968802D01*
X1903272Y-11917121D01*
X1808330Y-11347468D01*
X1919600Y-11347468D01*
X1919600Y-12630133D01*
X2002860Y-13048709D01*
X2320024Y-13523377D01*
X2794692Y-13840540D01*
X3354600Y-13951913D01*
X3914509Y-13840540D01*
X4389177Y-13523377D01*
X4706340Y-13048709D01*
X4789600Y-12630133D01*
X4789600Y-12115800D01*
X5019600Y-12115800D01*
X5019600Y-12515800D01*
X5177434Y-13055283D01*
X5529704Y-13493300D01*
X6022781Y-13763167D01*
X6105561Y-13780704D01*
X6327600Y-13658715D01*
X6327600Y-12115800D01*
X6581600Y-12115800D01*
X6581600Y-13658715D01*
X6803639Y-13780704D01*
X6886419Y-13763167D01*
X7379496Y-13493300D01*
X7731766Y-13055283D01*
X7889600Y-12515800D01*
X7889600Y-12115800D01*
X6581600Y-12115800D01*
X6327600Y-12115800D01*
X5019600Y-12115800D01*
X4789600Y-12115800D01*
X4789600Y-11461800D01*
X5019600Y-11461800D01*
X5019600Y-11861800D01*
X6327600Y-11861800D01*
X6327600Y-10318885D01*
X6581600Y-10318885D01*
X6581600Y-11861800D01*
X7889600Y-11861800D01*
X7889600Y-11461800D01*
X7731766Y-10922317D01*
X7379496Y-10484300D01*
X6886419Y-10214433D01*
X6803639Y-10196896D01*
X6581600Y-10318885D01*
X6327600Y-10318885D01*
X6105561Y-10196896D01*
X6022781Y-10214433D01*
X5529704Y-10484300D01*
X5177434Y-10922317D01*
X5019600Y-11461800D01*
X4789600Y-11461800D01*
X4789600Y-11347467D01*
X4706340Y-10928891D01*
X4389176Y-10454223D01*
X3914508Y-10137060D01*
X3354600Y-10025687D01*
X2794691Y-10137060D01*
X2320023Y-10454224D01*
X2002860Y-10928892D01*
X1919600Y-11347468D01*
X1808330Y-11347468D01*
X1776272Y-11155121D01*
X1748564Y-11094697D01*
X1113564Y-10332697D01*
X1091607Y-10311958D01*
X1046802Y-10290792D01*
X30802Y-10036792D01*
X0Y-10033000D01*
X-127000Y-10033000D01*
X-151907Y-10035466D01*
X-786907Y-10162466D01*
X-843303Y-10189436D01*
X-1605303Y-10824436D01*
X-1626042Y-10846393D01*
X-1647208Y-10891198D01*
X-1901208Y-11907198D01*
X-1903272Y-11958879D01*
X-3560400Y-11958879D01*
X-3560400Y-11302393D01*
X-3640759Y-10898400D01*
X-3946872Y-10440271D01*
X-4405001Y-10134159D01*
X-4945400Y-10026667D01*
X-5485800Y-10134159D01*
X-5943929Y-10440272D01*
X-6250041Y-10898401D01*
X-6330400Y-11302394D01*
X-8925000Y-11302394D01*
X-8925000Y686406D01*
X-6305000Y686406D01*
X-6305000Y-686407D01*
X-6224641Y-1090400D01*
X-5918528Y-1548529D01*
X-5460399Y-1854641D01*
X-4920000Y-1962133D01*
X-4379600Y-1854641D01*
X-3921471Y-1548529D01*
X-3615359Y-1090400D01*
X-3535000Y-686407D01*
X-3535000Y641332D01*
X1945000Y641332D01*
X1945000Y-641333D01*
X2028260Y-1059909D01*
X2345424Y-1534577D01*
X2820092Y-1851740D01*
X3380000Y-1963113D01*
X3939909Y-1851740D01*
X4414577Y-1534577D01*
X4731740Y-1059909D01*
X4815000Y-641333D01*
X4815000Y-127000D01*
X5045000Y-127000D01*
X5045000Y-527000D01*
X5202834Y-1066483D01*
X5555104Y-1504500D01*
X6048181Y-1774367D01*
X6130961Y-1791904D01*
X6353000Y-1669915D01*
X6353000Y-127000D01*
X6607000Y-127000D01*
X6607000Y-1669915D01*
X6829039Y-1791904D01*
X6911819Y-1774367D01*
X7404896Y-1504500D01*
X7757166Y-1066483D01*
X7915000Y-527000D01*
X7915000Y-127000D01*
X6607000Y-127000D01*
X6353000Y-127000D01*
X5045000Y-127000D01*
X4815000Y-127000D01*
X4815000Y527000D01*
X5045000Y527000D01*
X5045000Y127000D01*
X6353000Y127000D01*
X6353000Y1669915D01*
X6607000Y1669915D01*
X6607000Y127000D01*
X7915000Y127000D01*
X7915000Y527000D01*
X7757166Y1066483D01*
X7404896Y1504500D01*
X6911819Y1774367D01*
X6829039Y1791904D01*
X6607000Y1669915D01*
X6353000Y1669915D01*
X6130961Y1791904D01*
X6048181Y1774367D01*
X5555104Y1504500D01*
X5202834Y1066483D01*
X5045000Y527000D01*
X4815000Y527000D01*
X4815000Y641333D01*
X4731740Y1059909D01*
X4414576Y1534577D01*
X3939908Y1851740D01*
X3380000Y1963113D01*
X2820091Y1851740D01*
X2345423Y1534576D01*
X2028260Y1059908D01*
X1945000Y641332D01*
X-3535000Y641332D01*
X-3535000Y686407D01*
X-3615359Y1090400D01*
X-3921472Y1548529D01*
X-4379601Y1854641D01*
X-4920000Y1962133D01*
X-5460400Y1854641D01*
X-5918529Y1548528D01*
X-6224641Y1090399D01*
X-6305000Y686406D01*
X-8925000Y686406D01*
X-8925000Y12700606D01*
X-6305000Y12700606D01*
X-6305000Y11327793D01*
X-6224641Y10923800D01*
X-5918528Y10465671D01*
X-5460399Y10159559D01*
X-4920000Y10052067D01*
X-4379600Y10159559D01*
X-3921471Y10465671D01*
X-3615359Y10923800D01*
X-3535000Y11327793D01*
X-3535000Y12044121D01*
X-1886300Y12044121D01*
X-1759300Y11282121D01*
X-1731592Y11221697D01*
X-1096592Y10459697D01*
X-1074635Y10438958D01*
X-1029830Y10417792D01*
X-13830Y10163792D01*
X47774Y10163792D01*
X1063774Y10417792D01*
X1122775Y10451197D01*
X1630775Y10959197D01*
X1664180Y11018198D01*
X1918180Y12034198D01*
X1920244Y12085879D01*
X1825302Y12655532D01*
X1945000Y12655532D01*
X1945000Y11372867D01*
X2028260Y10954291D01*
X2345424Y10479623D01*
X2820092Y10162460D01*
X3380000Y10051087D01*
X3939909Y10162460D01*
X4414577Y10479623D01*
X4731740Y10954291D01*
X4815000Y11372867D01*
X4815000Y11887200D01*
X5045000Y11887200D01*
X5045000Y11487200D01*
X5202834Y10947717D01*
X5555104Y10509700D01*
X6048181Y10239833D01*
X6130961Y10222296D01*
X6353000Y10344285D01*
X6353000Y11887200D01*
X6607000Y11887200D01*
X6607000Y10344285D01*
X6829039Y10222296D01*
X6911819Y10239833D01*
X7404896Y10509700D01*
X7757166Y10947717D01*
X7915000Y11487200D01*
X7915000Y11887200D01*
X6607000Y11887200D01*
X6353000Y11887200D01*
X5045000Y11887200D01*
X4815000Y11887200D01*
X4815000Y12541200D01*
X5045000Y12541200D01*
X5045000Y12141200D01*
X6353000Y12141200D01*
X6353000Y13684115D01*
X6607000Y13684115D01*
X6607000Y12141200D01*
X7915000Y12141200D01*
X7915000Y12541200D01*
X7757166Y13080683D01*
X7404896Y13518700D01*
X6911819Y13788567D01*
X6829039Y13806104D01*
X6607000Y13684115D01*
X6353000Y13684115D01*
X6130961Y13806104D01*
X6048181Y13788567D01*
X5555104Y13518700D01*
X5202834Y13080683D01*
X5045000Y12541200D01*
X4815000Y12541200D01*
X4815000Y12655533D01*
X4731740Y13074109D01*
X4414576Y13548777D01*
X3939908Y13865940D01*
X3380000Y13977313D01*
X2820091Y13865940D01*
X2345423Y13548776D01*
X2028260Y13074108D01*
X1945000Y12655532D01*
X1825302Y12655532D01*
X1793244Y12847879D01*
X1765536Y12908303D01*
X1130536Y13670303D01*
X1108579Y13691042D01*
X1063774Y13712208D01*
X47774Y13966208D01*
X16972Y13970000D01*
X-110028Y13970000D01*
X-134935Y13967534D01*
X-769935Y13840534D01*
X-826331Y13813564D01*
X-1588331Y13178564D01*
X-1609070Y13156607D01*
X-1630236Y13111802D01*
X-1884236Y12095802D01*
X-1886300Y12044121D01*
X-3535000Y12044121D01*
X-3535000Y12700607D01*
X-3615359Y13104600D01*
X-3921472Y13562729D01*
X-4379601Y13868841D01*
X-4920000Y13976333D01*
X-5460400Y13868841D01*
X-5918529Y13562728D01*
X-6224641Y13104599D01*
X-6305000Y12700606D01*
X-8925000Y12700606D01*
X-8925000Y24664006D01*
X-6279600Y24664006D01*
X-6279600Y23291193D01*
X-6199241Y22887200D01*
X-5893128Y22429071D01*
X-5434999Y22122959D01*
X-4894600Y22015467D01*
X-4354200Y22122959D01*
X-3896071Y22429071D01*
X-3589959Y22887200D01*
X-3509600Y23291193D01*
X-3509600Y23982121D01*
X-1886300Y23982121D01*
X-1759300Y23220121D01*
X-1731592Y23159697D01*
X-1096592Y22397697D01*
X-1074635Y22376958D01*
X-1029830Y22355792D01*
X-13830Y22101792D01*
X47774Y22101792D01*
X1063774Y22355792D01*
X1122775Y22389197D01*
X1630775Y22897197D01*
X1664180Y22956198D01*
X1918180Y23972198D01*
X1920244Y24023879D01*
X1821069Y24618932D01*
X1970400Y24618932D01*
X1970400Y23336267D01*
X2053660Y22917691D01*
X2370824Y22443023D01*
X2845492Y22125860D01*
X3405400Y22014487D01*
X3965309Y22125860D01*
X4439977Y22443023D01*
X4757140Y22917691D01*
X4840400Y23336267D01*
X4840400Y23850600D01*
X5070400Y23850600D01*
X5070400Y23450600D01*
X5228234Y22911117D01*
X5580504Y22473100D01*
X6073581Y22203233D01*
X6156361Y22185696D01*
X6378400Y22307685D01*
X6378400Y23850600D01*
X6632400Y23850600D01*
X6632400Y22307685D01*
X6854439Y22185696D01*
X6937219Y22203233D01*
X7430296Y22473100D01*
X7782566Y22911117D01*
X7940400Y23450600D01*
X7940400Y23850600D01*
X6632400Y23850600D01*
X6378400Y23850600D01*
X5070400Y23850600D01*
X4840400Y23850600D01*
X4840400Y24504600D01*
X5070400Y24504600D01*
X5070400Y24104600D01*
X6378400Y24104600D01*
X6378400Y25647515D01*
X6632400Y25647515D01*
X6632400Y24104600D01*
X7940400Y24104600D01*
X7940400Y24504600D01*
X7782566Y25044083D01*
X7430296Y25482100D01*
X6937219Y25751967D01*
X6854439Y25769504D01*
X6632400Y25647515D01*
X6378400Y25647515D01*
X6156361Y25769504D01*
X6073581Y25751967D01*
X5580504Y25482100D01*
X5228234Y25044083D01*
X5070400Y24504600D01*
X4840400Y24504600D01*
X4840400Y24618933D01*
X4757140Y25037509D01*
X4439976Y25512177D01*
X3965308Y25829340D01*
X3405400Y25940713D01*
X2845491Y25829340D01*
X2370823Y25512176D01*
X2053660Y25037508D01*
X1970400Y24618932D01*
X1821069Y24618932D01*
X1793244Y24785879D01*
X1765536Y24846303D01*
X1130536Y25608303D01*
X1108579Y25629042D01*
X1063774Y25650208D01*
X47774Y25904208D01*
X16972Y25908000D01*
X-110028Y25908000D01*
X-134935Y25905534D01*
X-769935Y25778534D01*
X-826331Y25751564D01*
X-1588331Y25116564D01*
X-1609070Y25094607D01*
X-1630236Y25049802D01*
X-1884236Y24033802D01*
X-1886300Y23982121D01*
X-3509600Y23982121D01*
X-3509600Y24664007D01*
X-3589959Y25068000D01*
X-3896072Y25526129D01*
X-4354201Y25832241D01*
X-4894600Y25939733D01*
X-5435000Y25832241D01*
X-5893129Y25526128D01*
X-6199241Y25067999D01*
X-6279600Y24664006D01*
X-8925000Y24664006D01*
X-8925000Y36678206D01*
X-6305000Y36678206D01*
X-6305000Y35305393D01*
X-6224641Y34901400D01*
X-5918528Y34443271D01*
X-5460399Y34137159D01*
X-4920000Y34029667D01*
X-4379600Y34137159D01*
X-3921471Y34443271D01*
X-3615359Y34901400D01*
X-3535000Y35305393D01*
X-3535000Y35988009D01*
X-1886300Y35988009D01*
X-1759300Y35226009D01*
X-1731592Y35165585D01*
X-1096592Y34403585D01*
X-1074635Y34382846D01*
X-1029830Y34361680D01*
X-13830Y34107680D01*
X47774Y34107680D01*
X1063774Y34361680D01*
X1122775Y34395085D01*
X1630775Y34903085D01*
X1664180Y34962086D01*
X1918180Y35978086D01*
X1920244Y36029767D01*
X1819684Y36633132D01*
X1945000Y36633132D01*
X1945000Y35350467D01*
X2028260Y34931891D01*
X2345424Y34457223D01*
X2820092Y34140060D01*
X3380000Y34028687D01*
X3939909Y34140060D01*
X4414577Y34457223D01*
X4731740Y34931891D01*
X4815000Y35350467D01*
X4815000Y35864800D01*
X5045000Y35864800D01*
X5045000Y35464800D01*
X5202834Y34925317D01*
X5555104Y34487300D01*
X6048181Y34217433D01*
X6130961Y34199896D01*
X6353000Y34321885D01*
X6353000Y35864800D01*
X6607000Y35864800D01*
X6607000Y34321885D01*
X6829039Y34199896D01*
X6911819Y34217433D01*
X7404896Y34487300D01*
X7757166Y34925317D01*
X7915000Y35464800D01*
X7915000Y35864800D01*
X6607000Y35864800D01*
X6353000Y35864800D01*
X5045000Y35864800D01*
X4815000Y35864800D01*
X4815000Y36518800D01*
X5045000Y36518800D01*
X5045000Y36118800D01*
X6353000Y36118800D01*
X6353000Y37661715D01*
X6607000Y37661715D01*
X6607000Y36118800D01*
X7915000Y36118800D01*
X7915000Y36518800D01*
X7757166Y37058283D01*
X7404896Y37496300D01*
X6911819Y37766167D01*
X6829039Y37783704D01*
X6607000Y37661715D01*
X6353000Y37661715D01*
X6130961Y37783704D01*
X6048181Y37766167D01*
X5555104Y37496300D01*
X5202834Y37058283D01*
X5045000Y36518800D01*
X4815000Y36518800D01*
X4815000Y36633133D01*
X4731740Y37051709D01*
X4414576Y37526377D01*
X3939908Y37843540D01*
X3380000Y37954913D01*
X2820091Y37843540D01*
X2345423Y37526376D01*
X2028260Y37051708D01*
X1945000Y36633132D01*
X1819684Y36633132D01*
X1793244Y36791767D01*
X1765536Y36852191D01*
X1130536Y37614191D01*
X1108579Y37634930D01*
X1063774Y37656096D01*
X47774Y37910096D01*
X16972Y37913888D01*
X-110028Y37913888D01*
X-134935Y37911422D01*
X-769935Y37784422D01*
X-826331Y37757452D01*
X-1588331Y37122452D01*
X-1609070Y37100495D01*
X-1630236Y37055690D01*
X-1884236Y36039690D01*
X-1886300Y35988009D01*
X-3535000Y35988009D01*
X-3535000Y36678207D01*
X-3615359Y37082200D01*
X-3921472Y37540329D01*
X-4379601Y37846441D01*
X-4920000Y37953933D01*
X-5460400Y37846441D01*
X-5918529Y37540328D01*
X-6224641Y37082199D01*
X-6305000Y36678206D01*
X-8925000Y36678206D01*
X-8925000Y48692406D01*
X-6305000Y48692406D01*
X-6305000Y47319593D01*
X-6224641Y46915600D01*
X-5918528Y46457471D01*
X-5460399Y46151359D01*
X-4920000Y46043867D01*
X-4379600Y46151359D01*
X-3921471Y46457471D01*
X-3615359Y46915600D01*
X-3535000Y47319593D01*
X-3535000Y47985121D01*
X-1903272Y47985121D01*
X-1776272Y47223121D01*
X-1748564Y47162697D01*
X-1113564Y46400697D01*
X-1091607Y46379958D01*
X-1046802Y46358792D01*
X-30802Y46104792D01*
X30802Y46104792D01*
X1046802Y46358792D01*
X1105803Y46392197D01*
X1613803Y46900197D01*
X1647208Y46959198D01*
X1901208Y47975198D01*
X1903272Y48026879D01*
X1799864Y48647332D01*
X1945000Y48647332D01*
X1945000Y47364667D01*
X2028260Y46946091D01*
X2345424Y46471423D01*
X2820092Y46154260D01*
X3380000Y46042887D01*
X3939909Y46154260D01*
X4414577Y46471423D01*
X4731740Y46946091D01*
X4815000Y47364667D01*
X4815000Y47879000D01*
X5045000Y47879000D01*
X5045000Y47479000D01*
X5202834Y46939517D01*
X5555104Y46501500D01*
X6048181Y46231633D01*
X6130961Y46214096D01*
X6353000Y46336085D01*
X6353000Y47879000D01*
X6607000Y47879000D01*
X6607000Y46336085D01*
X6829039Y46214096D01*
X6911819Y46231633D01*
X7404896Y46501500D01*
X7757166Y46939517D01*
X7915000Y47479000D01*
X7915000Y47879000D01*
X6607000Y47879000D01*
X6353000Y47879000D01*
X5045000Y47879000D01*
X4815000Y47879000D01*
X4815000Y48533000D01*
X5045000Y48533000D01*
X5045000Y48133000D01*
X6353000Y48133000D01*
X6353000Y49675915D01*
X6607000Y49675915D01*
X6607000Y48133000D01*
X7915000Y48133000D01*
X7915000Y48533000D01*
X7757166Y49072483D01*
X7404896Y49510500D01*
X6911819Y49780367D01*
X6829039Y49797904D01*
X6607000Y49675915D01*
X6353000Y49675915D01*
X6130961Y49797904D01*
X6048181Y49780367D01*
X5555104Y49510500D01*
X5202834Y49072483D01*
X5045000Y48533000D01*
X4815000Y48533000D01*
X4815000Y48647333D01*
X4731740Y49065909D01*
X4414576Y49540577D01*
X3939908Y49857740D01*
X3380000Y49969113D01*
X2820091Y49857740D01*
X2345423Y49540576D01*
X2028260Y49065908D01*
X1945000Y48647332D01*
X1799864Y48647332D01*
X1776272Y48788879D01*
X1748564Y48849303D01*
X1113564Y49611303D01*
X1091607Y49632042D01*
X1046802Y49653208D01*
X30802Y49907208D01*
X0Y49911000D01*
X-127000Y49911000D01*
X-151907Y49908534D01*
X-786907Y49781534D01*
X-843303Y49754564D01*
X-1605303Y49119564D01*
X-1626042Y49097607D01*
X-1647208Y49052802D01*
X-1901208Y48036802D01*
X-1903272Y47985121D01*
X-3535000Y47985121D01*
X-3535000Y48692407D01*
X-3615359Y49096400D01*
X-3921472Y49554529D01*
X-4379601Y49860641D01*
X-4920000Y49968133D01*
X-5460400Y49860641D01*
X-5918529Y49554528D01*
X-6224641Y49096399D01*
X-6305000Y48692406D01*
X-8925000Y48692406D01*
X-8925000Y52517540D01*
X8925001Y52517540D01*
X8925000Y-52512460D01*
G04 #@! TD*
M02*
