G04 #@! TF.GenerationSoftware,KiCad,Pcbnew,(5.0.1-3-g963ef8bb5)*
G04 #@! TF.CreationDate,2019-01-13T13:31:38+08:00*
G04 #@! TF.ProjectId,PassiveMult,506173736976654D756C742E6B696361,rev?*
G04 #@! TF.SameCoordinates,PX8d9f26cPY642443c*
G04 #@! TF.FileFunction,Legend,Top*
G04 #@! TF.FilePolarity,Positive*
%FSLAX46Y46*%
G04 Gerber Fmt 4.6, Leading zero omitted, Abs format (unit mm)*
G04 Created by KiCad (PCBNEW (5.0.1-3-g963ef8bb5)) date 2019 January 13, Sunday 13:31:38*
%MOMM*%
%LPD*%
G01*
G04 APERTURE LIST*
%ADD10C,0.150000*%
G04 APERTURE END LIST*
D10*
G04 #@! TO.C,J9*
X0Y-46206000D02*
X0Y-49806000D01*
X-1800000Y-48006000D02*
X1800000Y-48006000D01*
X4500000Y-52506000D02*
X4500000Y-43506000D01*
X4500000Y-43506000D02*
X-6000000Y-43506000D01*
X-6000000Y-43506000D02*
X-6000000Y-52506000D01*
X-6000000Y-52506000D02*
X4500000Y-52506000D01*
X3006659Y-48006000D02*
G75*
G03X3006659Y-48006000I-3006659J0D01*
G01*
X1800000Y-48006000D02*
G75*
G03X1800000Y-48006000I-1800000J0D01*
G01*
G04 #@! TO.C,J8*
X1800000Y-35991800D02*
G75*
G03X1800000Y-35991800I-1800000J0D01*
G01*
X3006659Y-35991800D02*
G75*
G03X3006659Y-35991800I-3006659J0D01*
G01*
X-6000000Y-40491800D02*
X4500000Y-40491800D01*
X-6000000Y-31491800D02*
X-6000000Y-40491800D01*
X4500000Y-31491800D02*
X-6000000Y-31491800D01*
X4500000Y-40491800D02*
X4500000Y-31491800D01*
X-1800000Y-35991800D02*
X1800000Y-35991800D01*
X0Y-34191800D02*
X0Y-37791800D01*
G04 #@! TO.C,J7*
X0Y-22203000D02*
X0Y-25803000D01*
X-1800000Y-24003000D02*
X1800000Y-24003000D01*
X4500000Y-28503000D02*
X4500000Y-19503000D01*
X4500000Y-19503000D02*
X-6000000Y-19503000D01*
X-6000000Y-19503000D02*
X-6000000Y-28503000D01*
X-6000000Y-28503000D02*
X4500000Y-28503000D01*
X3006659Y-24003000D02*
G75*
G03X3006659Y-24003000I-3006659J0D01*
G01*
X1800000Y-24003000D02*
G75*
G03X1800000Y-24003000I-1800000J0D01*
G01*
G04 #@! TO.C,J6*
X1774600Y-11988800D02*
G75*
G03X1774600Y-11988800I-1800000J0D01*
G01*
X2981259Y-11988800D02*
G75*
G03X2981259Y-11988800I-3006659J0D01*
G01*
X-6025400Y-16488800D02*
X4474600Y-16488800D01*
X-6025400Y-7488800D02*
X-6025400Y-16488800D01*
X4474600Y-7488800D02*
X-6025400Y-7488800D01*
X4474600Y-16488800D02*
X4474600Y-7488800D01*
X-1825400Y-11988800D02*
X1774600Y-11988800D01*
X-25400Y-10188800D02*
X-25400Y-13788800D01*
G04 #@! TO.C,J5*
X0Y1800000D02*
X0Y-1800000D01*
X-1800000Y0D02*
X1800000Y0D01*
X4500000Y-4500000D02*
X4500000Y4500000D01*
X4500000Y4500000D02*
X-6000000Y4500000D01*
X-6000000Y4500000D02*
X-6000000Y-4500000D01*
X-6000000Y-4500000D02*
X4500000Y-4500000D01*
X3006659Y0D02*
G75*
G03X3006659Y0I-3006659J0D01*
G01*
X1800000Y0D02*
G75*
G03X1800000Y0I-1800000J0D01*
G01*
G04 #@! TO.C,J4*
X1800000Y12014200D02*
G75*
G03X1800000Y12014200I-1800000J0D01*
G01*
X3006659Y12014200D02*
G75*
G03X3006659Y12014200I-3006659J0D01*
G01*
X-6000000Y7514200D02*
X4500000Y7514200D01*
X-6000000Y16514200D02*
X-6000000Y7514200D01*
X4500000Y16514200D02*
X-6000000Y16514200D01*
X4500000Y7514200D02*
X4500000Y16514200D01*
X-1800000Y12014200D02*
X1800000Y12014200D01*
X0Y13814200D02*
X0Y10214200D01*
G04 #@! TO.C,J3*
X25400Y25777600D02*
X25400Y22177600D01*
X-1774600Y23977600D02*
X1825400Y23977600D01*
X4525400Y19477600D02*
X4525400Y28477600D01*
X4525400Y28477600D02*
X-5974600Y28477600D01*
X-5974600Y28477600D02*
X-5974600Y19477600D01*
X-5974600Y19477600D02*
X4525400Y19477600D01*
X3032059Y23977600D02*
G75*
G03X3032059Y23977600I-3006659J0D01*
G01*
X1825400Y23977600D02*
G75*
G03X1825400Y23977600I-1800000J0D01*
G01*
G04 #@! TO.C,J2*
X1800000Y35991800D02*
G75*
G03X1800000Y35991800I-1800000J0D01*
G01*
X3006659Y35991800D02*
G75*
G03X3006659Y35991800I-3006659J0D01*
G01*
X-6000000Y31491800D02*
X4500000Y31491800D01*
X-6000000Y40491800D02*
X-6000000Y31491800D01*
X4500000Y40491800D02*
X-6000000Y40491800D01*
X4500000Y31491800D02*
X4500000Y40491800D01*
X-1800000Y35991800D02*
X1800000Y35991800D01*
X0Y37791800D02*
X0Y34191800D01*
G04 #@! TO.C,J1*
X0Y49806000D02*
X0Y46206000D01*
X-1800000Y48006000D02*
X1800000Y48006000D01*
X4500000Y43506000D02*
X4500000Y52506000D01*
X4500000Y52506000D02*
X-6000000Y52506000D01*
X-6000000Y52506000D02*
X-6000000Y43506000D01*
X-6000000Y43506000D02*
X4500000Y43506000D01*
X3006659Y48006000D02*
G75*
G03X3006659Y48006000I-3006659J0D01*
G01*
X1800000Y48006000D02*
G75*
G03X1800000Y48006000I-1800000J0D01*
G01*
G04 #@! TO.C,J9*
X-7447620Y-48339333D02*
X-6733334Y-48339333D01*
X-6590477Y-48386952D01*
X-6495239Y-48482190D01*
X-6447620Y-48625047D01*
X-6447620Y-48720285D01*
X-6447620Y-47815523D02*
X-6447620Y-47625047D01*
X-6495239Y-47529809D01*
X-6542858Y-47482190D01*
X-6685715Y-47386952D01*
X-6876191Y-47339333D01*
X-7257143Y-47339333D01*
X-7352381Y-47386952D01*
X-7400000Y-47434571D01*
X-7447620Y-47529809D01*
X-7447620Y-47720285D01*
X-7400000Y-47815523D01*
X-7352381Y-47863142D01*
X-7257143Y-47910761D01*
X-7019048Y-47910761D01*
X-6923810Y-47863142D01*
X-6876191Y-47815523D01*
X-6828572Y-47720285D01*
X-6828572Y-47529809D01*
X-6876191Y-47434571D01*
X-6923810Y-47386952D01*
X-7019048Y-47339333D01*
G04 #@! TO.C,J8*
X-7447620Y-36325133D02*
X-6733334Y-36325133D01*
X-6590477Y-36372752D01*
X-6495239Y-36467990D01*
X-6447620Y-36610847D01*
X-6447620Y-36706085D01*
X-7019048Y-35706085D02*
X-7066667Y-35801323D01*
X-7114286Y-35848942D01*
X-7209524Y-35896561D01*
X-7257143Y-35896561D01*
X-7352381Y-35848942D01*
X-7400000Y-35801323D01*
X-7447620Y-35706085D01*
X-7447620Y-35515609D01*
X-7400000Y-35420371D01*
X-7352381Y-35372752D01*
X-7257143Y-35325133D01*
X-7209524Y-35325133D01*
X-7114286Y-35372752D01*
X-7066667Y-35420371D01*
X-7019048Y-35515609D01*
X-7019048Y-35706085D01*
X-6971429Y-35801323D01*
X-6923810Y-35848942D01*
X-6828572Y-35896561D01*
X-6638096Y-35896561D01*
X-6542858Y-35848942D01*
X-6495239Y-35801323D01*
X-6447620Y-35706085D01*
X-6447620Y-35515609D01*
X-6495239Y-35420371D01*
X-6542858Y-35372752D01*
X-6638096Y-35325133D01*
X-6828572Y-35325133D01*
X-6923810Y-35372752D01*
X-6971429Y-35420371D01*
X-7019048Y-35515609D01*
G04 #@! TO.C,J7*
X-7447620Y-24336333D02*
X-6733334Y-24336333D01*
X-6590477Y-24383952D01*
X-6495239Y-24479190D01*
X-6447620Y-24622047D01*
X-6447620Y-24717285D01*
X-7447620Y-23955380D02*
X-7447620Y-23288714D01*
X-6447620Y-23717285D01*
G04 #@! TO.C,J6*
X-7473020Y-12322133D02*
X-6758734Y-12322133D01*
X-6615877Y-12369752D01*
X-6520639Y-12464990D01*
X-6473020Y-12607847D01*
X-6473020Y-12703085D01*
X-7473020Y-11417371D02*
X-7473020Y-11607847D01*
X-7425400Y-11703085D01*
X-7377781Y-11750704D01*
X-7234924Y-11845942D01*
X-7044448Y-11893561D01*
X-6663496Y-11893561D01*
X-6568258Y-11845942D01*
X-6520639Y-11798323D01*
X-6473020Y-11703085D01*
X-6473020Y-11512609D01*
X-6520639Y-11417371D01*
X-6568258Y-11369752D01*
X-6663496Y-11322133D01*
X-6901591Y-11322133D01*
X-6996829Y-11369752D01*
X-7044448Y-11417371D01*
X-7092067Y-11512609D01*
X-7092067Y-11703085D01*
X-7044448Y-11798323D01*
X-6996829Y-11845942D01*
X-6901591Y-11893561D01*
G04 #@! TO.C,J5*
X-7447620Y-333333D02*
X-6733334Y-333333D01*
X-6590477Y-380952D01*
X-6495239Y-476190D01*
X-6447620Y-619047D01*
X-6447620Y-714285D01*
X-7447620Y619048D02*
X-7447620Y142858D01*
X-6971429Y95239D01*
X-7019048Y142858D01*
X-7066667Y238096D01*
X-7066667Y476191D01*
X-7019048Y571429D01*
X-6971429Y619048D01*
X-6876191Y666667D01*
X-6638096Y666667D01*
X-6542858Y619048D01*
X-6495239Y571429D01*
X-6447620Y476191D01*
X-6447620Y238096D01*
X-6495239Y142858D01*
X-6542858Y95239D01*
G04 #@! TO.C,J4*
X-7447620Y11680867D02*
X-6733334Y11680867D01*
X-6590477Y11633248D01*
X-6495239Y11538010D01*
X-6447620Y11395153D01*
X-6447620Y11299915D01*
X-7114286Y12585629D02*
X-6447620Y12585629D01*
X-7495239Y12347534D02*
X-6780953Y12109439D01*
X-6780953Y12728486D01*
G04 #@! TO.C,J3*
X-7422220Y23644267D02*
X-6707934Y23644267D01*
X-6565077Y23596648D01*
X-6469839Y23501410D01*
X-6422220Y23358553D01*
X-6422220Y23263315D01*
X-7422220Y24025220D02*
X-7422220Y24644267D01*
X-7041267Y24310934D01*
X-7041267Y24453791D01*
X-6993648Y24549029D01*
X-6946029Y24596648D01*
X-6850791Y24644267D01*
X-6612696Y24644267D01*
X-6517458Y24596648D01*
X-6469839Y24549029D01*
X-6422220Y24453791D01*
X-6422220Y24168077D01*
X-6469839Y24072839D01*
X-6517458Y24025220D01*
G04 #@! TO.C,J2*
X-7447620Y35658467D02*
X-6733334Y35658467D01*
X-6590477Y35610848D01*
X-6495239Y35515610D01*
X-6447620Y35372753D01*
X-6447620Y35277515D01*
X-7352381Y36087039D02*
X-7400000Y36134658D01*
X-7447620Y36229896D01*
X-7447620Y36467991D01*
X-7400000Y36563229D01*
X-7352381Y36610848D01*
X-7257143Y36658467D01*
X-7161905Y36658467D01*
X-7019048Y36610848D01*
X-6447620Y36039420D01*
X-6447620Y36658467D01*
G04 #@! TO.C,J1*
X-7447620Y47672667D02*
X-6733334Y47672667D01*
X-6590477Y47625048D01*
X-6495239Y47529810D01*
X-6447620Y47386953D01*
X-6447620Y47291715D01*
X-6447620Y48672667D02*
X-6447620Y48101239D01*
X-6447620Y48386953D02*
X-7447620Y48386953D01*
X-7304762Y48291715D01*
X-7209524Y48196477D01*
X-7161905Y48101239D01*
G04 #@! TD*
M02*
