M48
;DRILL file {KiCad (5.0.1-3-g963ef8bb5)} date 2019 January 13, Sunday 13:31:16
;FORMAT={-:-/ absolute / inch / decimal}
FMAT,2
INCH,TZ
T1C0.0197
T2C0.0236
%
G90
G05
M72
T1
X-0.1947Y-0.4937G85X-0.1947Y-0.4503
G05
X-0.1937Y-0.9667G85X-0.1937Y-0.9233
G05
X-0.1937Y-0.0217G85X-0.1937Y0.0217
G05
X-0.1937Y-1.9117G85X-0.1937Y-1.8683
G05
X-0.1937Y-1.4387G85X-0.1937Y-1.3953
G05
X-0.1937Y0.4513G85X-0.1937Y0.4947
G05
X-0.1927Y0.9223G85X-0.1927Y0.9657
G05
X-0.1937Y1.3953G85X-0.1937Y1.4387
G05
X-0.1937Y1.8683G85X-0.1937Y1.9117
G05
T2
X0.1321Y-0.4917G85X0.1321Y-0.4523
G05
X0.2541Y-0.4877G85X0.2541Y-0.4563
G05
X0.1331Y-0.9647G85X0.1331Y-0.9253
G05
X0.2551Y-0.9607G85X0.2551Y-0.9293
G05
X0.1331Y-0.0197G85X0.1331Y0.0197
G05
X0.2551Y-0.0157G85X0.2551Y0.0157
G05
X0.1331Y-1.9097G85X0.1331Y-1.8703
G05
X0.2551Y-1.9057G85X0.2551Y-1.8743
G05
X0.1331Y-1.4367G85X0.1331Y-1.3973
G05
X0.2551Y-1.4327G85X0.2551Y-1.4013
G05
X0.1331Y0.4533G85X0.1331Y0.4927
G05
X0.2551Y0.4573G85X0.2551Y0.4887
G05
X0.1341Y0.9243G85X0.1341Y0.9637
G05
X0.2561Y0.9283G85X0.2561Y0.9597
G05
X0.1331Y1.3973G85X0.1331Y1.4367
G05
X0.2551Y1.4013G85X0.2551Y1.4327
G05
X0.1331Y1.8703G85X0.1331Y1.9097
G05
X0.2551Y1.8743G85X0.2551Y1.9057
G05
T0
M30
